# https://github.com/mikedh/trimesh
v -25.00000000 51.30000305 45.00000000
v -21.00000000 51.30000305 45.00000000
v -25.00000000 91.30000305 11.00000000
v -25.00000000 87.30000305 11.00000000
v -25.00000000 83.30000305 4.00000000
v -25.00000000 91.30000305 2.00000000
v -25.00000000 87.30000305 2.00000000
v -25.00000000 83.30000305 0.00000000
v -21.00000000 31.80000305 20.00000000
v -18.00000000 31.80000305 20.00000000
v -25.00000000 51.30000305 4.00000000
v -25.00000000 55.30000305 2.25000000
v -25.00000000 55.30000305 0.00000000
v -25.00000000 51.30000305 2.00000000
v -22.98530960 51.30000305 0.00000000
v -21.00000000 51.30000305 4.00000000
v -21.00000000 31.80000305 4.00000000
v -15.50000000 55.30000305 4.00000000
v -18.00000000 31.80000305 4.00000000
v -25.00000000 -19.99999619 46.00000000
v -25.00000000 -19.99999619 45.00000000
v -25.00000000 -21.74999619 42.00000000
v -21.00000000 -19.99999619 45.00000000
v -25.00000000 -21.74999619 36.00000000
v -25.00000000 -30.00000000 46.00000000
v -25.00000000 -30.00000000 45.00000000
v -25.00000000 -28.25000000 42.00000000
v -21.00000000 -30.00000000 45.00000000
v -25.00000000 -28.25000000 36.00000000
v -17.00000000 -19.99999619 46.00000000
v -17.00000000 -21.74999619 42.00000000
v -17.00000000 -21.74999619 36.00000000
v -17.00000000 -30.00000000 46.00000000
v -17.00000000 -28.25000000 42.00000000
v -17.00000000 -28.25000000 36.00000000
v -21.00000000 -19.99999619 32.00000000
v -21.00000000 -30.00000000 32.00000000
v -17.00000000 -19.99999619 32.00000000
v -17.00000000 -30.00000000 32.00000000
v -21.00000000 6.80000305 20.00000000
v -18.00000000 6.80000305 20.00000000
v -21.00000000 6.80000305 4.00000000
v -18.00000000 6.80000305 4.00000000
v -25.00000000 -30.00000000 4.00000000
v -25.00000000 -40.00000000 4.00000000
v -25.00000000 -40.00000000 0.00000000
v -21.00000000 -30.00000000 4.00000000
v 19.00000000 51.30000305 45.00000000
v 23.00000000 51.30000305 45.00000000
v 23.00000000 91.30000305 11.00000000
v 23.00000000 87.30000305 11.00000000
v 23.00000000 83.30000305 4.00000000
v 23.00000000 91.30000305 2.00000000
v 23.00000000 87.30000305 2.00000000
v 23.00000000 83.30000305 0.00000000
v 16.00000000 31.80000305 20.00000000
v 19.00000000 31.80000305 20.00000000
v 16.00000000 31.80000305 4.00000000
v 19.50000000 55.30000305 4.00000000
v 19.00000000 51.30000305 4.00000000
v 20.98530960 51.30000305 4.00000000
v 23.00000000 51.30000305 4.00000000
v 23.00000000 51.30000305 2.00000000
v 23.00000000 51.30000305 0.00000000
v 19.00000000 31.80000305 4.00000000
v 15.00000000 -19.99999619 46.00000000
v 15.00000000 -21.74999619 42.00000000
v 15.00000000 -21.74999619 36.00000000
v 15.00000000 -30.00000000 46.00000000
v 15.00000000 -28.25000000 42.00000000
v 15.00000000 -28.25000000 36.00000000
v 19.00000000 -19.99999619 45.00000000
v 23.00000000 -19.99999619 46.00000000
v 23.00000000 -19.99999619 45.00000000
v 23.00000000 -21.74999619 42.00000000
v 23.00000000 -21.74999619 36.00000000
v 23.00000000 -30.00000000 46.00000000
v 23.00000000 -28.25000000 42.00000000
v 23.00000000 -28.25000000 36.00000000
v 15.00000000 -19.99999619 32.00000000
v 15.00000000 -30.00000000 32.00000000
v 19.00000000 -19.99999619 32.00000000
v 23.00000000 -19.99999619 32.00000000
v 19.00000000 -30.00000000 32.00000000
v 23.00000000 -30.00000000 32.00000000
v 16.00000000 6.80000305 20.00000000
v 19.00000000 6.80000305 20.00000000
v 16.00000000 6.80000305 4.00000000
v 19.00000000 6.80000305 4.00000000
v 19.00000000 -30.00000000 4.00000000
v 23.00000000 -30.00000000 4.00000000
v 23.00000000 -30.00000000 2.00000000
v 23.00000000 -40.00000000 4.00000000
v 23.00000000 -40.00000000 0.00000000
v 11.39999962 -8.75000000 8.40000153
v 31.36450744 -6.77685547 8.40000153
v 33.14664197 -7.31746006 8.40000153
v 35.00000000 -7.50000000 8.40000153
v 36.85335803 -7.31746006 8.40000153
v 38.63549256 -6.77685547 8.40000153
v 28.28248549 -4.71751404 8.40000153
v 29.72208261 -5.89896107 8.40000153
v 27.10103846 -3.27791691 8.40000153
v 11.39999962 4.75000000 8.40000153
v 26.22314453 -1.63549232 8.40000153
v 25.68253994 0.14664173 8.40000153
v 25.50000000 0.50000000 8.40000153
v 25.64773750 0.50000000 8.40000153
v 25.50000000 4.75000000 8.40000153
v 11.39999962 -8.75000000 2.60000610
v 31.36450744 -6.77685547 2.60000610
v 33.14664197 -7.31746006 2.60000610
v 35.00000000 -7.50000000 2.60000610
v 36.85335803 -7.31746006 2.60000610
v 38.63549256 -6.77685547 2.60000610
v 28.28248549 -4.71751404 2.60000610
v 29.72208261 -5.89896107 2.60000610
v 27.10103846 -3.27791691 2.60000610
v 11.39999962 4.75000000 2.60000610
v 26.22314453 -1.63549232 2.60000610
v 25.68253994 0.14664173 2.60000610
v 25.50000000 0.50000000 2.60000610
v 25.64773750 0.50000000 2.60000610
v 25.50000000 4.75000000 2.60000610
v 40.27791739 -5.89896107 8.40000153
v 41.71751451 -4.71751404 8.40000153
v 42.89896154 -3.27791691 8.40000153
v 56.60000038 -10.00000000 8.50000381
v 56.60000038 -8.75000000 8.40000153
v 62.35000038 -9.00000000 9.00000381
v 62.35000038 -9.00000000 8.50000381
v 66.60000038 -10.00000000 8.50000381
v 63.85000038 -9.00000000 9.00000381
v 64.35000038 -9.00000000 9.00000381
v 63.85000038 -9.00000000 8.50000381
v 64.35000038 -9.00000000 8.50000381
v 65.85000038 -9.00000000 9.00000381
v 65.85000038 -9.00000000 8.50000381
v 43.77685547 -1.63549232 8.40000153
v 44.31746006 0.14664173 8.40000153
v 44.35226250 0.50000000 8.40000153
v 44.50000000 0.50000000 8.40000153
v 44.50000000 4.75000000 8.40000153
v 56.60000038 6.00000000 8.50000381
v 56.60000038 4.75000000 8.40000153
v 62.35000038 5.00000000 9.00000381
v 62.35000038 5.00000000 8.50000381
v 63.85000038 5.00000000 9.00000381
v 64.35000038 5.00000000 9.00000381
v 63.85000038 5.00000000 8.50000381
v 64.35000038 5.00000000 8.50000381
v 65.85000038 5.00000000 9.00000381
v 65.85000038 5.00000000 8.50000381
v 66.60000038 6.00000000 8.50000381
v 40.27791739 -5.89896107 2.60000610
v 41.71751451 -4.71751404 2.60000610
v 42.89896154 -3.27791691 2.60000610
v 56.60000038 -8.75000000 2.60000610
v 56.60000038 -10.00000000 0.50000000
v 62.35000038 -9.00000000 0.50000000
v 62.35000038 -9.00000000 0.00000000
v 66.60000038 -10.00000000 0.50000000
v 63.85000038 -9.00000000 0.50000000
v 64.35000038 -9.00000000 0.50000000
v 63.85000038 -9.00000000 0.00000000
v 64.35000038 -9.00000000 0.00000000
v 65.85000038 -9.00000000 0.50000000
v 65.85000038 -9.00000000 0.00000000
v 43.77685547 -1.63549232 2.60000610
v 44.31746006 0.14664173 2.60000610
v 44.35226250 0.50000000 2.60000610
v 44.50000000 0.50000000 2.60000610
v 44.50000000 4.75000000 2.60000610
v 56.60000038 4.75000000 2.60000610
v 56.60000038 6.00000000 0.50000000
v 62.35000038 5.00000000 0.50000000
v 62.35000038 5.00000000 0.00000000
v 63.85000038 5.00000000 0.50000000
v 64.35000038 5.00000000 0.50000000
v 63.85000038 5.00000000 0.00000000
v 64.35000038 5.00000000 0.00000000
v 65.85000038 5.00000000 0.50000000
v 66.60000038 6.00000000 0.50000000
v 65.85000038 5.00000000 0.00000000
f 1 21 2
f 1 2 16
f 2 40 9
f 3 7 4
f 3 6 7
f 5 8 12
f 5 12 11
f 8 13 12
f 8 15 13
f 1 16 11
f 2 9 16
f 9 10 17
f 11 12 14
f 12 13 14
f 11 16 18
f 9 17 16
f 16 17 19
f 10 19 17
f 3 4 50
f 3 50 6
f 4 7 54
f 6 54 7
f 5 52 8
f 5 11 52
f 8 64 15
f 11 18 52
f 16 60 18
f 16 19 60
f 19 43 60
f 2 23 40
f 1 22 21
f 2 21 23
f 1 24 22
f 1 44 24
f 20 21 26
f 20 23 21
f 20 25 30
f 21 22 27
f 20 30 23
f 22 24 32
f 22 32 31
f 23 38 36
f 20 26 25
f 21 27 26
f 25 26 28
f 22 31 27
f 26 37 28
f 25 28 33
f 25 33 30
f 27 31 34
f 28 37 33
f 27 34 29
f 24 29 35
f 29 34 35
f 24 35 32
f 23 30 38
f 30 31 32
f 30 32 38
f 32 35 38
f 30 33 31
f 31 33 34
f 33 39 34
f 33 37 39
f 34 39 35
f 23 36 40
f 26 27 44
f 36 39 37
f 27 29 44
f 26 47 37
f 24 44 29
f 36 38 39
f 35 39 38
f 1 11 44
f 9 40 10
f 10 40 41
f 10 41 19
f 40 43 41
f 13 46 14
f 13 15 46
f 11 14 46
f 40 42 43
f 40 47 42
f 11 46 44
f 42 47 43
f 19 41 43
f 36 47 40
f 26 44 47
f 36 37 47
f 44 45 47
f 44 46 45
f 45 60 47
f 43 47 60
f 15 94 46
f 45 46 94
f 48 72 49
f 48 49 62
f 49 74 62
f 48 57 87
f 4 51 50
f 4 54 51
f 6 50 53
f 6 53 54
f 8 52 55
f 8 55 64
f 18 59 52
f 18 60 59
f 50 51 53
f 51 54 53
f 52 62 55
f 52 59 62
f 55 62 63
f 55 63 64
f 48 61 60
f 48 60 57
f 48 62 61
f 56 57 58
f 62 74 63
f 59 60 61
f 59 61 62
f 57 60 65
f 57 65 58
f 58 65 60
f 48 82 72
f 49 72 74
f 48 90 82
f 63 74 83
f 66 67 70
f 66 80 67
f 67 80 68
f 66 82 80
f 66 70 69
f 69 70 71
f 69 71 81
f 68 81 71
f 69 81 84
f 66 69 73
f 66 73 72
f 66 72 82
f 72 73 74
f 73 77 74
f 74 75 76
f 67 68 76
f 67 76 75
f 74 76 83
f 76 79 83
f 67 75 70
f 69 77 73
f 74 77 75
f 75 77 78
f 70 75 78
f 69 85 77
f 70 78 71
f 68 71 79
f 69 84 85
f 71 78 79
f 77 85 78
f 68 79 76
f 78 85 79
f 68 80 81
f 80 84 81
f 80 82 84
f 79 85 83
f 45 58 60
f 45 88 58
f 15 64 94
f 45 90 88
f 45 91 90
f 45 93 91
f 45 94 93
f 56 88 86
f 56 86 57
f 48 87 90
f 57 86 87
f 86 89 87
f 63 83 92
f 56 58 88
f 63 94 64
f 86 88 89
f 87 89 90
f 88 90 89
f 63 92 94
f 82 90 84
f 83 85 91
f 84 91 85
f 84 90 91
f 83 91 92
f 91 93 92
f 92 93 94
f 95 96 102
f 95 102 101
f 95 103 105
f 95 101 103
f 95 105 106
f 95 106 107
f 95 119 110
f 95 97 96
f 95 98 97
f 95 129 98
f 96 111 102
f 95 110 158
f 102 111 117
f 96 112 111
f 96 97 112
f 97 98 113
f 98 99 114
f 99 100 115
f 97 113 112
f 98 114 113
f 99 115 114
f 101 116 103
f 101 102 117
f 103 118 105
f 101 117 116
f 103 116 118
f 105 118 120
f 95 109 104
f 95 107 109
f 95 104 119
f 104 124 119
f 104 109 124
f 106 108 107
f 105 120 106
f 106 121 108
f 107 108 122
f 107 122 109
f 106 120 121
f 108 121 123
f 108 123 122
f 109 122 124
f 110 117 111
f 110 116 117
f 110 120 118
f 110 118 116
f 110 121 120
f 110 111 112
f 110 112 113
f 110 113 158
f 110 119 121
f 119 122 121
f 119 124 122
f 121 122 123
f 98 129 99
f 99 129 100
f 100 129 125
f 125 129 126
f 126 129 127
f 127 129 139
f 129 140 139
f 95 158 129
f 100 125 155
f 100 155 115
f 125 126 156
f 126 127 157
f 127 139 169
f 125 156 155
f 126 157 156
f 127 169 157
f 128 135 131
f 128 132 136
f 128 136 135
f 130 131 135
f 132 138 136
f 130 135 133
f 134 136 138
f 134 138 137
f 128 144 129
f 128 131 144
f 130 133 146
f 130 146 131
f 134 137 149
f 134 149 136
f 133 135 150
f 135 136 150
f 132 153 138
f 137 138 153
f 128 129 158
f 128 159 132
f 132 162 154
f 140 142 141
f 129 145 140
f 140 145 142
f 142 145 143
f 139 140 170
f 140 141 171
f 141 142 171
f 139 170 169
f 140 171 170
f 142 172 171
f 142 173 172
f 142 143 173
f 143 145 174
f 143 174 173
f 129 144 145
f 131 147 144
f 131 146 147
f 133 148 146
f 133 150 148
f 136 149 151
f 136 151 150
f 137 152 149
f 137 153 152
f 132 154 153
f 144 147 150
f 146 148 147
f 144 150 151
f 144 151 154
f 149 152 151
f 147 148 150
f 151 152 153
f 151 153 154
f 144 174 145
f 144 154 183
f 113 114 158
f 114 115 158
f 115 155 158
f 155 156 158
f 156 157 158
f 157 169 158
f 158 169 170
f 158 170 172
f 128 158 159
f 132 159 162
f 159 160 163
f 159 164 162
f 159 163 164
f 160 161 165
f 162 164 167
f 160 165 163
f 164 166 168
f 164 168 167
f 158 174 159
f 159 176 160
f 160 176 161
f 163 179 164
f 164 179 166
f 163 165 180
f 161 180 165
f 162 167 183
f 166 184 168
f 167 168 184
f 170 171 172
f 158 172 173
f 158 173 174
f 154 162 183
f 144 175 174
f 144 183 175
f 159 174 175
f 159 175 176
f 161 176 177
f 161 177 180
f 163 180 178
f 163 178 179
f 166 179 181
f 166 181 184
f 167 184 182
f 167 182 183
f 175 178 176
f 175 179 178
f 176 178 177
f 175 183 179
f 179 182 181
f 177 178 180
f 179 183 182
f 181 182 184

