# https://github.com/mikedh/trimesh
v -57.09999847 58.04999924 -21.00000000
v -47.09999847 58.04999924 -21.00000000
v -49.09999847 59.29999924 -18.50000000
v -29.43903160 59.29999924 -14.06525517
v -30.90893555 59.29999924 -12.85893536
v -57.09999847 58.04999924 -3.00000000
v -47.09999847 58.04999924 -3.00000000
v -49.09999847 59.29999924 -5.50000000
v -32.11525345 59.29999924 -11.38903141
v -33.01163101 59.29999924 -9.71202946
v -33.56361771 59.29999924 -7.89237595
v -33.75000000 59.29999924 -6.00000000
v -33.75000000 59.29999924 -5.50000000
v -57.09999847 66.55000305 -21.00000000
v -49.09999847 65.30000305 -18.50000000
v -47.09999847 66.55000305 -21.00000000
v -29.43903160 65.30000305 -14.06525517
v -30.90893555 65.30000305 -12.85893536
v -57.09999847 66.55000305 -3.00000000
v -49.09999847 65.30000305 -5.50000000
v -47.09999847 66.55000305 -3.00000000
v -32.11525345 65.30000305 -11.38903141
v -33.01163101 65.30000305 -9.71202946
v -33.56361771 65.30000305 -7.89237595
v -33.75000000 65.30000305 -6.00000000
v -33.75000000 65.30000305 -5.50000000
v -25.94237518 59.29999924 -15.51361752
v -27.76202965 59.29999924 -14.96163177
v -24.04999924 59.29999924 -15.69999981
v -22.15762329 59.29999924 -15.51361752
v -20.33797073 59.29999924 -14.96163177
v -18.66096878 59.29999924 -14.06525517
v -17.19106483 59.29999924 -12.85893536
v 1.00000000 59.29999924 -18.50000000
v -15.98474503 59.29999924 -11.38903141
v -15.08836842 59.29999924 -9.71202946
v -14.53638268 59.29999924 -7.89237595
v -14.35000038 59.29999924 -6.00000000
v -14.35000038 59.29999924 -5.50000000
v 1.00000000 59.29999924 -5.50000000
v -25.94237518 65.30000305 -15.51361752
v -27.76202965 65.30000305 -14.96163177
v -24.04999924 65.30000305 -15.69999981
v -22.15762329 65.30000305 -15.51361752
v -20.33797073 65.30000305 -14.96163177
v -18.66096878 65.30000305 -14.06525517
v -17.19106483 65.30000305 -12.85893536
v 1.00000000 65.30000305 -18.50000000
v -15.98474503 65.30000305 -11.38903141
v -15.08836842 65.30000305 -9.71202946
v -14.53638268 65.30000305 -7.89237595
v -14.35000038 65.30000305 -6.00000000
v -14.35000038 65.30000305 -5.50000000
v 1.00000000 65.30000305 -5.50000000
f 1 2 6
f 1 14 2
f 2 16 7
f 3 28 4
f 3 4 5
f 3 5 9
f 3 9 10
f 3 10 11
f 3 27 28
f 3 15 34
f 4 28 42
f 4 17 5
f 5 18 9
f 2 7 6
f 3 11 8
f 1 6 19
f 3 8 20
f 6 7 21
f 8 11 12
f 8 12 13
f 9 22 10
f 10 23 11
f 8 13 26
f 11 24 12
f 2 14 16
f 1 19 14
f 3 20 15
f 14 21 16
f 4 42 17
f 5 17 18
f 15 41 43
f 15 43 44
f 15 17 42
f 15 18 17
f 15 22 18
f 15 23 22
f 15 24 23
f 15 42 41
f 7 16 21
f 6 21 19
f 8 26 20
f 14 19 21
f 15 20 24
f 9 18 22
f 10 22 23
f 11 23 24
f 12 24 25
f 20 25 24
f 20 26 25
f 3 34 27
f 27 34 29
f 29 34 30
f 30 34 31
f 27 29 43
f 27 41 28
f 29 30 44
f 30 31 45
f 31 32 46
f 32 33 47
f 31 34 32
f 32 34 33
f 33 34 35
f 34 36 35
f 34 37 36
f 34 48 40
f 33 35 49
f 35 36 50
f 36 37 51
f 37 38 52
f 34 40 37
f 37 40 38
f 38 40 39
f 40 54 39
f 15 48 34
f 27 43 41
f 28 41 42
f 29 44 43
f 30 45 44
f 31 46 45
f 32 47 46
f 33 49 47
f 15 44 48
f 44 45 48
f 45 46 48
f 46 47 48
f 47 49 48
f 48 49 50
f 48 50 51
f 35 50 49
f 36 51 50
f 37 52 51
f 40 48 54
f 54 53 39
f 48 51 54
f 51 52 54
f 52 53 54
f 13 12 26
f 12 25 26
f 52 38 39
f 52 39 53

