# https://github.com/mikedh/trimesh
v -59.54999924 66.95000076 4.00000000
v -59.54999924 66.95000076 0.00000000
v -59.54999924 20.80000305 14.57999992
v -59.54999924 16.80000210 14.57999992
v -59.54999924 20.80000305 4.00000000
v -59.54999924 16.80000210 4.00000000
v -59.54999924 2.35000229 4.00000000
v -59.54999924 2.35000229 0.00000000
v -59.54999924 -54.94999695 64.66999817
v -59.54999924 -62.95000076 64.66999817
v -62.54999924 -54.94999695 53.33499908
v -62.54999924 -55.94999695 52.33499908
v -59.54999924 -55.94999695 52.33499908
v -62.54999924 -66.95000076 53.33499908
v -62.54999924 -62.95000076 52.33499908
v -59.54999924 -62.95000076 52.33499908
v -55.54999924 -54.94999695 53.33499908
v -55.54999924 -54.94999695 53.33499908
v -55.54999924 -55.94999695 52.33499908
v -55.54999924 -55.94999695 52.33499908
v -55.54999924 -59.95000076 53.33499908
v -55.54999924 -59.95000076 53.33499908
v -55.54999924 -59.95000076 52.33499908
v -55.54999924 -59.95000076 52.33499908
v -62.54999924 -55.94999695 38.33499908
v -62.54999924 -54.94999695 37.33499908
v -59.54999924 -55.94999695 38.33499908
v -62.54999924 -62.95000076 38.33499908
v -62.54999924 -66.95000076 37.33499908
v -59.54999924 -62.95000076 38.33499908
v -55.54999924 -55.94999695 38.33499908
v -55.54999924 -55.94999695 38.33499908
v -55.54999924 -54.94999695 37.33499908
v -55.54999924 -59.95000076 38.33499908
v -55.54999924 -59.95000076 38.33499908
v -55.54999924 -59.95000076 37.33499908
v -43.63172913 -62.95000076 41.46672726
v -43.63172913 -66.95000076 41.46672726
v -41.88905907 -62.95000076 42.89689922
v -41.88905907 -66.95000076 42.89689922
v -46.24621201 -59.95000076 37.33499908
v -45.80436707 -59.95000076 38.33499908
v -45.80436707 -59.95000076 38.33499908
v -46.12461472 -59.95000076 37.73585844
v -46.12461472 -59.95000076 37.73585844
v -46.24621201 -66.95000076 37.33499908
v -45.80436707 -62.95000076 38.33499908
v -45.80436707 -62.95000076 38.33499908
v -46.12461472 -62.95000076 37.73585844
v -46.12461472 -66.95000076 37.73585844
v -46.77902985 -59.95000076 35.57853770
v -47.00000000 -59.95000076 33.33499908
v -46.77902985 -62.95000076 35.57853770
v -47.00000000 -62.95000076 33.33499908
v -45.06190109 -62.95000076 39.72405672
v -45.06190109 -66.95000076 39.72405672
v -39.90085983 -62.95000076 43.95961380
v -39.90085983 -66.95000076 43.95961380
v -37.74353981 -62.95000076 44.61402988
v -37.74353981 -66.95000076 44.61402988
v -35.50000000 -62.95000076 44.83499908
v -35.50000000 -66.95000076 44.83499908
v -59.54999924 -54.94999695 0.00000000
v -59.54999924 -62.95000076 0.00000000
v -55.54999924 -54.94999695 13.33499908
v -55.54999924 -59.95000076 13.33499908
v -46.77902985 -59.95000076 31.09146047
v -46.12461472 -59.95000076 28.93413973
v -46.77902985 -62.95000076 31.09146047
v -46.12461472 -62.95000076 28.93413973
v -45.06190109 -59.95000076 26.94594145
v -43.63172913 -59.95000076 25.20327091
v -45.06190109 -62.95000076 26.94594145
v -43.63172913 -62.95000076 25.20327091
v -41.88905907 -59.95000076 23.77309895
v -41.88905907 -62.95000076 23.77309895
v -39.90085983 -59.95000076 22.71038437
v -39.90085983 -62.95000076 22.71038437
v -37.74353981 -59.95000076 22.05596828
v -37.74353981 -62.95000076 22.05596828
v -35.50000000 -59.95000076 21.83499908
v -35.50000000 -62.95000076 21.83499908
v -11.45000076 20.80000305 64.66999817
v -7.45000076 20.80000305 64.66999817
v -11.45000076 66.95000076 4.00000000
v -11.45000076 66.95000076 0.00000000
v -11.45000076 20.80000305 14.57999992
v -11.45000076 16.80000210 14.57999992
v -11.45000076 20.80000305 4.00000000
v -11.45000076 16.80000210 4.00000000
v -11.45000076 20.80000305 0.00000000
v -7.45000076 20.80000305 0.00000000
v -11.45000076 2.35000229 4.00000000
v -11.45000076 2.35000229 0.00000000
v -33.25646210 -62.95000076 44.61402988
v -33.25646210 -66.95000076 44.61402988
v -31.09914207 -62.95000076 43.95961380
v -31.09914207 -66.95000076 43.95961380
v -29.11094284 -62.95000076 42.89689922
v -29.11094284 -66.95000076 42.89689922
v -27.36827278 -62.95000076 41.46672726
v -27.36827278 -66.95000076 41.46672726
v -25.19563389 -59.95000076 38.33499908
v -25.19563389 -59.95000076 38.33499908
v -24.87538624 -59.95000076 37.73585844
v -24.87538624 -59.95000076 37.73585844
v -24.75378704 -59.95000076 37.33499908
v -25.93809986 -62.95000076 39.72405672
v -25.93809986 -66.95000076 39.72405672
v -25.19563389 -62.95000076 38.33499908
v -25.19563389 -62.95000076 38.33499908
v -24.87538624 -62.95000076 37.73585844
v -24.87538624 -66.95000076 37.73585844
v -24.75378704 -66.95000076 37.33499908
v -24.22097015 -59.95000076 35.57853770
v -24.00000095 -59.95000076 33.33499908
v -24.22097015 -62.95000076 35.57853770
v -24.00000095 -62.95000076 33.33499908
v -15.45000076 -54.94999695 53.33499908
v -15.45000076 -54.94999695 53.33499908
v -15.45000076 -55.94999695 52.33499908
v -15.45000076 -59.95000076 53.33499908
v -15.45000076 -59.95000076 53.33499908
v -15.45000076 -59.95000076 52.33499908
v -15.45000076 -59.95000076 52.33499908
v -11.45000076 -54.94999695 64.66999817
v -11.45000076 -62.95000076 64.66999817
v -11.45000076 -64.95000076 64.66999817
v -7.45000076 -64.95000076 64.66999817
v -11.45000076 -55.94999695 52.33499908
v -11.45000076 -55.94999695 52.33499908
v -11.45000076 -62.95000076 52.33499908
v -11.45000076 -62.95000076 52.33499908
v -8.45000076 -54.94999695 53.33499908
v -8.45000076 -55.94999695 52.33499908
v -7.45000076 -55.94999695 52.33499908
v -8.45000076 -66.95000076 53.33499908
v -8.45000076 -62.95000076 52.33499908
v -7.45000076 -62.95000076 52.33499908
v -15.45000076 -55.94999695 38.33499908
v -15.45000076 -55.94999695 38.33499908
v -15.45000076 -54.94999695 37.33499908
v -15.45000076 -59.95000076 38.33499908
v -15.45000076 -59.95000076 38.33499908
v -15.45000076 -59.95000076 37.33499908
v -11.45000076 -55.94999695 38.33499908
v -11.45000076 -55.94999695 38.33499908
v -11.45000076 -62.95000076 38.33499908
v -11.45000076 -62.95000076 38.33499908
v -11.45000076 -62.95000076 38.33499908
v -8.45000076 -55.94999695 38.33499908
v -8.45000076 -54.94999695 37.33499908
v -7.45000076 -55.94999695 38.33499908
v -8.45000076 -62.95000076 38.33499908
v -8.45000076 -66.95000076 37.33499908
v -7.45000076 -62.95000076 38.33499908
v -33.25646210 -59.95000076 22.05596828
v -33.25646210 -62.95000076 22.05596828
v -31.09914207 -59.95000076 22.71038437
v -31.09914207 -62.95000076 22.71038437
v -29.11094284 -59.95000076 23.77309895
v -29.11094284 -62.95000076 23.77309895
v -24.87538624 -59.95000076 28.93413973
v -24.87538624 -62.95000076 28.93413973
v -27.36827278 -59.95000076 25.20327091
v -27.36827278 -62.95000076 25.20327091
v -25.93809986 -59.95000076 26.94594145
v -25.93809986 -62.95000076 26.94594145
v -24.22097015 -59.95000076 31.09146047
v -24.22097015 -62.95000076 31.09146047
v -15.45000076 -54.94999695 13.33499908
v -15.45000076 -59.95000076 13.33499908
v -11.45000076 -54.94999695 0.00000000
v -11.45000076 -62.95000076 0.00000000
v -11.45000076 -64.95000076 0.00000000
v -7.45000076 -64.95000076 0.00000000
v 5.95000076 -9.00000000 8.50000381
v 15.95000076 -9.00000000 8.50000381
v 13.95000076 -6.50000000 7.25000381
v 33.61096764 -2.06525517 7.25000381
v 32.14106369 -0.85893536 7.25000381
v 5.95000076 9.00000000 8.50000381
v 15.95000076 9.00000000 8.50000381
v 13.95000076 6.50000000 7.25000381
v 30.93474579 0.61096859 7.25000381
v 30.03836823 2.28797054 7.25000381
v 29.48638153 4.10762405 7.25000381
v 29.29999924 6.00000000 7.25000381
v 29.29999924 6.50000000 7.25000381
v 5.95000076 -9.00000000 0.00000000
v 13.95000076 -6.50000000 1.25000000
v 15.95000076 -9.00000000 0.00000000
v 33.61096764 -2.06525517 1.25000000
v 32.14106369 -0.85893536 1.25000000
v 5.95000076 9.00000000 0.00000000
v 13.95000076 6.50000000 1.25000000
v 15.95000076 9.00000000 0.00000000
v 30.93474579 0.61096859 1.25000000
v 30.03836823 2.28797054 1.25000000
v 29.48638153 4.10762405 1.25000000
v 29.29999924 6.00000000 1.25000000
v 29.29999924 6.50000000 1.25000000
v 37.10762405 -3.51361752 7.25000381
v 35.28796959 -2.96163177 7.25000381
v 39.00000000 -3.69999981 7.25000381
v 40.89237595 -3.51361752 7.25000381
v 42.71202850 -2.96163177 7.25000381
v 44.38903046 -2.06525517 7.25000381
v 45.85893440 -0.85893536 7.25000381
v 64.04999924 -6.50000000 7.25000381
v 47.06525421 0.61096859 7.25000381
v 47.96163082 2.28797054 7.25000381
v 48.51361656 4.10762405 7.25000381
v 48.69999886 6.00000000 7.25000381
v 48.69999886 6.50000000 7.25000381
v 64.04999924 6.50000000 7.25000381
v 37.10762405 -3.51361752 1.25000000
v 35.28796959 -2.96163177 1.25000000
v 39.00000000 -3.69999981 1.25000000
v 40.89237595 -3.51361752 1.25000000
v 42.71202850 -2.96163177 1.25000000
v 44.38903046 -2.06525517 1.25000000
v 45.85893440 -0.85893536 1.25000000
v 64.04999924 -6.50000000 1.25000000
v 47.06525421 0.61096859 1.25000000
v 47.96163082 2.28797054 1.25000000
v 48.51361656 4.10762405 1.25000000
v 48.69999886 6.00000000 1.25000000
v 48.69999886 6.50000000 1.25000000
v 64.04999924 6.50000000 1.25000000
f 1 2 8
f 3 6 4
f 3 5 6
f 1 8 7
f 1 85 2
f 1 7 85
f 3 4 87
f 3 87 5
f 4 6 90
f 2 94 8
f 5 90 6
f 7 8 94
f 9 16 10
f 9 13 16
f 11 12 14
f 12 15 14
f 11 14 22
f 12 16 15
f 12 23 16
f 11 22 17
f 12 19 23
f 13 20 24
f 13 24 16
f 11 26 12
f 12 25 19
f 12 26 25
f 11 33 26
f 14 15 28
f 15 16 28
f 14 28 29
f 11 17 33
f 13 27 20
f 25 31 19
f 9 18 65
f 27 32 20
f 14 29 46
f 25 26 28
f 9 63 13
f 26 29 28
f 25 28 34
f 25 34 31
f 26 33 36
f 27 35 32
f 27 30 35
f 26 46 29
f 14 56 38
f 14 38 40
f 14 46 50
f 14 50 56
f 28 39 37
f 26 36 46
f 28 47 34
f 30 48 35
f 28 55 47
f 30 53 49
f 47 42 34
f 48 43 35
f 46 36 41
f 28 37 55
f 30 49 48
f 30 54 53
f 30 69 54
f 30 70 69
f 9 10 126
f 9 126 18
f 10 16 132
f 14 137 22
f 16 23 124
f 16 24 125
f 14 40 58
f 14 58 60
f 28 57 39
f 28 59 57
f 14 60 62
f 14 62 96
f 16 138 28
f 37 38 55
f 37 40 38
f 37 39 40
f 46 41 45
f 49 53 44
f 49 44 43
f 47 45 42
f 48 49 43
f 47 56 50
f 47 50 45
f 46 45 50
f 53 51 44
f 53 54 51
f 54 52 51
f 54 69 52
f 47 55 56
f 38 56 55
f 39 58 40
f 39 57 58
f 57 59 60
f 57 60 58
f 59 62 60
f 28 138 59
f 59 61 62
f 13 63 27
f 27 64 30
f 9 65 63
f 30 73 70
f 30 64 73
f 64 74 73
f 27 63 64
f 69 67 52
f 69 70 67
f 70 68 67
f 70 73 68
f 73 71 68
f 73 74 71
f 74 72 71
f 74 76 72
f 64 76 74
f 76 75 72
f 76 78 75
f 78 77 75
f 78 80 77
f 80 79 77
f 80 82 79
f 82 81 79
f 63 65 171
f 63 174 64
f 64 174 76
f 83 84 91
f 2 85 86
f 2 86 94
f 4 88 87
f 4 90 88
f 5 87 89
f 7 93 85
f 5 89 90
f 7 94 93
f 85 93 86
f 84 92 91
f 87 88 89
f 88 90 89
f 86 93 94
f 16 124 132
f 126 120 18
f 10 127 126
f 10 132 127
f 137 123 22
f 16 125 138
f 61 96 62
f 14 96 155
f 61 95 96
f 95 98 96
f 95 97 98
f 97 100 98
f 97 99 100
f 99 102 100
f 59 138 61
f 14 155 137
f 61 138 95
f 99 101 102
f 101 109 102
f 95 138 97
f 97 138 99
f 99 138 101
f 96 98 155
f 98 100 155
f 100 102 155
f 101 108 109
f 111 103 106
f 110 104 105
f 111 106 112
f 113 105 107
f 108 113 109
f 108 110 113
f 110 105 113
f 113 107 114
f 112 106 115
f 114 107 145
f 112 115 117
f 117 115 116
f 117 116 118
f 118 116 169
f 83 128 84
f 83 130 128
f 83 146 130
f 84 129 92
f 83 175 146
f 92 129 136
f 84 128 129
f 126 127 131
f 134 119 123
f 131 124 121
f 127 132 131
f 128 130 133
f 138 125 121
f 131 132 124
f 134 138 135
f 135 138 121
f 130 136 133
f 134 123 137
f 129 139 136
f 134 137 138
f 133 136 139
f 129 156 139
f 101 138 108
f 108 138 110
f 110 138 150
f 111 148 103
f 110 150 104
f 102 109 155
f 111 112 148
f 112 117 148
f 109 113 155
f 113 114 155
f 117 118 148
f 118 170 148
f 150 143 104
f 148 144 103
f 114 145 155
f 131 121 140
f 135 121 141
f 152 142 119
f 131 140 147
f 134 152 119
f 130 153 136
f 134 135 151
f 135 141 151
f 130 146 153
f 134 151 152
f 133 139 149
f 137 155 138
f 138 154 150
f 139 156 149
f 138 155 154
f 128 176 129
f 126 173 120
f 147 140 144
f 151 141 143
f 152 145 142
f 126 131 173
f 147 144 148
f 150 151 143
f 128 133 175
f 146 156 153
f 151 154 152
f 146 149 156
f 152 155 145
f 150 154 151
f 152 154 155
f 129 176 156
f 82 158 81
f 158 157 81
f 158 160 157
f 160 159 157
f 160 162 159
f 162 161 159
f 162 166 161
f 168 167 165
f 166 165 161
f 166 168 165
f 164 167 168
f 164 163 167
f 118 169 170
f 170 169 163
f 164 170 163
f 162 174 166
f 166 174 168
f 76 174 78
f 78 174 80
f 80 174 82
f 63 171 173
f 82 174 158
f 158 174 160
f 160 174 162
f 63 173 174
f 83 91 175
f 92 136 153
f 91 92 176
f 92 153 176
f 164 168 174
f 164 174 170
f 148 170 174
f 131 147 173
f 147 148 173
f 133 149 175
f 146 175 149
f 153 156 176
f 173 171 120
f 128 175 176
f 91 176 175
f 148 174 173
f 21 20 18
f 19 17 22
f 21 24 20
f 19 22 23
f 19 33 17
f 32 18 20
f 31 33 19
f 31 36 33
f 32 65 18
f 31 34 36
f 34 41 36
f 34 45 41
f 35 43 44
f 34 42 45
f 35 44 51
f 35 51 52
f 21 18 122
f 21 125 24
f 23 22 124
f 32 35 65
f 66 35 52
f 66 52 67
f 66 67 68
f 66 65 35
f 66 68 71
f 66 71 72
f 66 72 75
f 66 75 77
f 66 77 79
f 66 79 172
f 66 171 65
f 122 18 120
f 21 122 125
f 22 123 124
f 106 103 144
f 105 104 145
f 105 145 107
f 121 123 119
f 122 120 121
f 122 121 125
f 123 121 124
f 121 119 141
f 121 120 140
f 141 119 142
f 104 143 145
f 141 142 145
f 140 120 171
f 141 145 143
f 172 79 81
f 172 115 106
f 172 163 169
f 172 81 157
f 172 157 159
f 172 159 161
f 172 161 165
f 172 167 163
f 172 165 167
f 66 172 171
f 172 106 144
f 172 116 115
f 172 169 116
f 140 171 144
f 172 144 171
f 177 178 182
f 177 190 178
f 178 192 183
f 179 204 180
f 179 180 181
f 179 181 185
f 179 185 186
f 179 186 187
f 179 203 204
f 179 191 210
f 180 204 218
f 180 193 181
f 181 194 185
f 178 183 182
f 179 187 184
f 177 182 195
f 179 184 196
f 182 183 197
f 184 187 188
f 184 188 189
f 185 198 186
f 186 199 187
f 184 189 202
f 187 200 188
f 178 190 192
f 177 195 190
f 179 196 191
f 190 197 192
f 180 218 193
f 181 193 194
f 191 217 219
f 191 219 220
f 191 193 218
f 191 194 193
f 191 198 194
f 191 199 198
f 191 200 199
f 191 218 217
f 183 192 197
f 182 197 195
f 184 202 196
f 190 195 197
f 191 196 200
f 185 194 198
f 186 198 199
f 187 199 200
f 188 200 201
f 196 201 200
f 196 202 201
f 179 210 203
f 203 210 205
f 205 210 206
f 206 210 207
f 203 205 219
f 203 217 204
f 205 206 220
f 206 207 221
f 207 208 222
f 208 209 223
f 207 210 208
f 208 210 209
f 209 210 211
f 210 212 211
f 210 213 212
f 210 224 216
f 209 211 225
f 211 212 226
f 212 213 227
f 213 214 228
f 210 216 213
f 213 216 214
f 214 216 215
f 216 230 215
f 191 224 210
f 203 219 217
f 204 217 218
f 205 220 219
f 206 221 220
f 207 222 221
f 208 223 222
f 209 225 223
f 191 220 224
f 220 221 224
f 221 222 224
f 222 223 224
f 223 225 224
f 224 225 226
f 224 226 227
f 211 226 225
f 212 227 226
f 213 228 227
f 216 224 230
f 230 229 215
f 224 227 230
f 227 228 230
f 228 229 230
f 189 188 202
f 188 201 202
f 228 214 215
f 228 215 229

