# https://github.com/mikedh/trimesh
v 27.18664360 -106.20999908 45.67295074 0.13333333 0.77254902 0.36862745
v 26.52294922 -106.20999908 46.33664322 0.13333333 0.77254902 0.36862745
v 26.09683037 -106.20999908 47.17295074 0.13333333 0.77254902 0.36862745
v 25.95000076 -106.20999908 48.09999847 0.13333333 0.77254902 0.36862745
v 28.02294922 -106.20999908 45.24682999 0.13333333 0.77254902 0.36862745
v 28.95000076 -106.20999908 45.09999847 0.13333333 0.77254902 0.36862745
v 25.53236198 -104.04185486 56.00000000 0.13333333 0.77254902 0.36862745
v 25.49943733 -103.95221710 55.44943619 0.13333333 0.77254902 0.36862745
v 25.49943733 -103.95221710 56.55056381 0.13333333 0.77254902 0.36862745
v 25.47731209 -103.67461395 54.89365005 0.13333333 0.77254902 0.36862745
v 25.04999924 -103.84204865 56.00000000 0.13333333 0.77254902 0.36862745
v 24.94365120 -103.67461395 55.42731094 0.13333333 0.77254902 0.36862745
v 24.94365120 -103.67461395 56.57268906 0.13333333 0.77254902 0.36862745
v 25.95000076 -104.09683228 56.00000000 0.13333333 0.77254902 0.36862745
v 25.95000076 -104.04185486 55.58236313 0.13333333 0.77254902 0.36862745
v 25.95000076 -104.04185486 56.41763687 0.13333333 0.77254902 0.36862745
v 25.95000076 -104.02557373 55.47638321 0.13333333 0.77254902 0.36862745
v 25.95000076 -104.02557373 56.52361679 0.13333333 0.77254902 0.36862745
v 25.95000076 -103.86206055 55.08163071 0.13333333 0.77254902 0.36862745
v 25.95000076 -103.81281281 54.98143005 0.13333333 0.77254902 0.36862745
v 24.63578606 -103.52421570 56.00000000 0.13333333 0.77254902 0.36862745
v 24.89529991 -103.26470184 54.84529877 0.13333333 0.77254902 0.36862745
v 25.47731209 -103.21634674 54.43538666 0.13333333 0.77254902 0.36862745
v 24.48538589 -103.21634674 55.42731094 0.13333333 0.77254902 0.36862745
v 24.48538589 -103.21634674 56.57268906 0.13333333 0.77254902 0.36862745
v 25.95000076 -103.55047607 54.63954544 0.13333333 0.77254902 0.36862745
v 25.95000076 -103.47045898 54.55952454 0.13333333 0.77254902 0.36862745
v 24.31794930 -103.11000061 56.00000000 0.13333333 0.77254902 0.36862745
v 24.48538589 -102.68268585 54.89365005 0.13333333 0.77254902 0.36862745
v 24.94365120 -102.68268585 54.43538666 0.13333333 0.77254902 0.36862745
v 25.49943733 -102.66056061 54.15778351 0.13333333 0.77254902 0.36862745
v 24.20778275 -102.66056061 55.44943619 0.13333333 0.77254902 0.36862745
v 24.11814880 -102.62763977 56.00000000 0.13333333 0.77254902 0.36862745
v 24.20778275 -102.66056061 56.55056381 0.13333333 0.77254902 0.36862745
v 25.95000076 -103.12857056 54.29718781 0.13333333 0.77254902 0.36862745
v 25.95000076 -103.02836609 54.24794006 0.13333333 0.77254902 0.36862745
v 25.95000076 -102.63362122 54.08443069 0.13333333 0.77254902 0.36862745
v 25.95000076 -102.52764130 54.06814957 0.13333333 0.77254902 0.36862745
v 25.47731209 -103.67461395 57.10634995 0.13333333 0.77254902 0.36862745
v 25.95000076 -103.86206055 56.91836929 0.13333333 0.77254902 0.36862745
v 25.95000076 -103.81281281 57.01856995 0.13333333 0.77254902 0.36862745
v 24.89529991 -103.26470184 57.15470123 0.13333333 0.77254902 0.36862745
v 25.47731209 -103.21634674 57.56461334 0.13333333 0.77254902 0.36862745
v 25.95000076 -103.55047607 57.36045456 0.13333333 0.77254902 0.36862745
v 25.95000076 -103.47045898 57.44047546 0.13333333 0.77254902 0.36862745
v 24.48538589 -102.68268585 57.10634995 0.13333333 0.77254902 0.36862745
v 24.94365120 -102.68268585 57.56461334 0.13333333 0.77254902 0.36862745
v 25.49943733 -102.66056061 57.84221649 0.13333333 0.77254902 0.36862745
v 25.95000076 -103.12857056 57.70281219 0.13333333 0.77254902 0.36862745
v 25.95000076 -103.02836609 57.75205994 0.13333333 0.77254902 0.36862745
v 25.95000076 -102.63362122 57.91556931 0.13333333 0.77254902 0.36862745
v 25.95000076 -102.52764130 57.93185043 0.13333333 0.77254902 0.36862745
v 39.70000076 -106.20999908 45.09999847 0.13333333 0.77254902 0.36862745
v 39.70000076 -106.20999908 62.09999847 0.13333333 0.77254902 0.36862745
v 39.84432602 -106.20999908 63.74965668 0.13333333 0.77254902 0.36862745
v 40.27291870 -106.20999908 65.34918976 0.13333333 0.77254902 0.36862745
v 40.97275925 -106.20999908 66.84999847 0.13333333 0.77254902 0.36862745
v 41.92257690 -106.20999908 68.20648193 0.13333333 0.77254902 0.36862745
v 25.95000076 -106.20999908 76.09999847 0.13333333 0.77254902 0.36862745
v 26.09683037 -106.20999908 77.02705383 0.13333333 0.77254902 0.36862745
v 26.52294922 -106.20999908 77.86335754 0.13333333 0.77254902 0.36862745
v 27.18664360 -106.20999908 78.52705383 0.13333333 0.77254902 0.36862745
v 28.02294922 -106.20999908 78.95317078 0.13333333 0.77254902 0.36862745
v 28.95000076 -106.20999908 79.09999847 0.13333333 0.77254902 0.36862745
v 31.46794891 -106.20999908 79.09999847 0.13333333 0.77254902 0.36862745
v 31.20000076 -106.20999908 80.09999847 0.13333333 0.77254902 0.36862745
v 31.20000076 -106.20999908 90.09999847 0.13333333 0.77254902 0.36862745
v 31.46794891 -106.20999908 91.09999847 0.13333333 0.77254902 0.36862745
v 32.20000076 -106.20999908 91.83205414 0.13333333 0.77254902 0.36862745
v 33.20000076 -106.20999908 92.09999847 0.13333333 0.77254902 0.36862745
v 43.09351730 -106.20999908 69.37741852 0.13333333 0.77254902 0.36862745
v 44.45000076 -106.20999908 70.32723999 0.13333333 0.77254902 0.36862745
v 45.95080948 -106.20999908 71.02707672 0.13333333 0.77254902 0.36862745
v 47.55034256 -106.20999908 71.45567322 0.13333333 0.77254902 0.36862745
v 24.63578606 -102.11000061 54.58578491 0.13333333 0.77254902 0.36862745
v 24.31794930 -102.11000061 55.00000000 0.13333333 0.77254902 0.36862745
v 25.04999924 -102.11000061 54.26794815 0.13333333 0.77254902 0.36862745
v 25.53236198 -102.11000061 54.06814957 0.13333333 0.77254902 0.36862745
v 24.11814880 -102.11000061 55.48236084 0.13333333 0.77254902 0.36862745
v 24.04999924 -102.11000061 56.00000000 0.13333333 0.77254902 0.36862745
v 24.11814880 -102.11000061 56.51763916 0.13333333 0.77254902 0.36862745
v 25.95000076 -102.11000061 54.01316452 0.13333333 0.77254902 0.36862745
v 25.95000076 -101.69235992 54.06814957 0.13333333 0.77254902 0.36862745
v 24.48538589 -101.53730774 54.89365005 0.13333333 0.77254902 0.36862745
v 24.94365120 -101.53730774 54.43538666 0.13333333 0.77254902 0.36862745
v 25.49943733 -101.55944061 54.15778351 0.13333333 0.77254902 0.36862745
v 24.20778275 -101.55944061 55.44943619 0.13333333 0.77254902 0.36862745
v 24.11814880 -101.59236145 56.00000000 0.13333333 0.77254902 0.36862745
v 24.20778275 -101.55944061 56.55056381 0.13333333 0.77254902 0.36862745
v 24.31794930 -101.11000061 56.00000000 0.13333333 0.77254902 0.36862745
v 25.95000076 -101.58638000 54.08443069 0.13333333 0.77254902 0.36862745
v 25.95000076 -101.19163513 54.24794006 0.13333333 0.77254902 0.36862745
v 25.95000076 -101.09143066 54.29718781 0.13333333 0.77254902 0.36862745
v 25.47731209 -101.00364685 54.43538666 0.13333333 0.77254902 0.36862745
v 24.89529991 -100.95529938 54.84529877 0.13333333 0.77254902 0.36862745
v 24.48538589 -101.00364685 55.42731094 0.13333333 0.77254902 0.36862745
v 24.48538589 -101.00364685 56.57268906 0.13333333 0.77254902 0.36862745
v 24.63578606 -100.69578552 56.00000000 0.13333333 0.77254902 0.36862745
v 25.95000076 -100.74954224 54.55952454 0.13333333 0.77254902 0.36862745
v 25.95000076 -100.66952515 54.63954544 0.13333333 0.77254902 0.36862745
v 25.47731209 -100.54538727 54.89365005 0.13333333 0.77254902 0.36862745
v 24.94365120 -100.54538727 55.42731094 0.13333333 0.77254902 0.36862745
v 24.94365120 -100.54538727 56.57268906 0.13333333 0.77254902 0.36862745
v 25.04999924 -100.37795258 56.00000000 0.13333333 0.77254902 0.36862745
v 25.49943733 -100.26778412 55.44943619 0.13333333 0.77254902 0.36862745
v 25.49943733 -100.26778412 56.55056381 0.13333333 0.77254902 0.36862745
v 25.53236198 -100.17814636 56.00000000 0.13333333 0.77254902 0.36862745
v 25.95000076 -100.40718842 54.98143005 0.13333333 0.77254902 0.36862745
v 25.95000076 -100.35794067 55.08163071 0.13333333 0.77254902 0.36862745
v 25.95000076 -100.19442749 55.47638321 0.13333333 0.77254902 0.36862745
v 25.95000076 -100.19442749 56.52361679 0.13333333 0.77254902 0.36862745
v 25.95000076 -100.17814636 55.58236313 0.13333333 0.77254902 0.36862745
v 25.95000076 -100.12316895 56.00000000 0.13333333 0.77254902 0.36862745
v 25.95000076 -100.17814636 56.41763687 0.13333333 0.77254902 0.36862745
v 24.31794930 -102.11000061 57.00000000 0.13333333 0.77254902 0.36862745
v 24.63578606 -102.11000061 57.41421509 0.13333333 0.77254902 0.36862745
v 25.04999924 -102.11000061 57.73205185 0.13333333 0.77254902 0.36862745
v 25.53236198 -102.11000061 57.93185043 0.13333333 0.77254902 0.36862745
v 25.95000076 -102.11000061 57.98683548 0.13333333 0.77254902 0.36862745
v 25.95000076 -101.69235992 57.93185043 0.13333333 0.77254902 0.36862745
v 24.48538589 -101.53730774 57.10634995 0.13333333 0.77254902 0.36862745
v 24.94365120 -101.53730774 57.56461334 0.13333333 0.77254902 0.36862745
v 25.49943733 -101.55944061 57.84221649 0.13333333 0.77254902 0.36862745
v 25.95000076 -101.58638000 57.91556931 0.13333333 0.77254902 0.36862745
v 25.95000076 -101.19163513 57.75205994 0.13333333 0.77254902 0.36862745
v 25.95000076 -101.09143066 57.70281219 0.13333333 0.77254902 0.36862745
v 25.47731209 -101.00364685 57.56461334 0.13333333 0.77254902 0.36862745
v 24.89529991 -100.95529938 57.15470123 0.13333333 0.77254902 0.36862745
v 25.95000076 -100.74954224 57.44047546 0.13333333 0.77254902 0.36862745
v 25.95000076 -100.66952515 57.36045456 0.13333333 0.77254902 0.36862745
v 25.47731209 -100.54538727 57.10634995 0.13333333 0.77254902 0.36862745
v 25.95000076 -100.40718842 57.01856995 0.13333333 0.77254902 0.36862745
v 25.95000076 -100.35794067 56.91836929 0.13333333 0.77254902 0.36862745
v 27.18664360 -98.01000214 45.67295074 0.13333333 0.77254902 0.36862745
v 26.52294922 -98.01000214 46.33664322 0.13333333 0.77254902 0.36862745
v 26.09683037 -98.01000214 47.17295074 0.13333333 0.77254902 0.36862745
v 25.95000076 -98.01000214 48.09999847 0.13333333 0.77254902 0.36862745
v 28.02294922 -98.01000214 45.24682999 0.13333333 0.77254902 0.36862745
v 28.95000076 -98.01000214 45.09999847 0.13333333 0.77254902 0.36862745
v 39.70000076 -98.01000214 45.09999847 0.13333333 0.77254902 0.36862745
v 39.70000076 -98.01000214 62.09999847 0.13333333 0.77254902 0.36862745
v 39.84432602 -98.01000214 63.74965668 0.13333333 0.77254902 0.36862745
v 40.27291870 -98.01000214 65.34918976 0.13333333 0.77254902 0.36862745
v 40.97275925 -98.01000214 66.84999847 0.13333333 0.77254902 0.36862745
v 41.92257690 -98.01000214 68.20648193 0.13333333 0.77254902 0.36862745
v 25.95000076 -98.01000214 76.09999847 0.13333333 0.77254902 0.36862745
v 26.09683037 -98.01000214 77.02705383 0.13333333 0.77254902 0.36862745
v 26.52294922 -98.01000214 77.86335754 0.13333333 0.77254902 0.36862745
v 27.18664360 -98.01000214 78.52705383 0.13333333 0.77254902 0.36862745
v 28.02294922 -98.01000214 78.95317078 0.13333333 0.77254902 0.36862745
v 28.95000076 -98.01000214 79.09999847 0.13333333 0.77254902 0.36862745
v 31.46794891 -98.01000214 79.09999847 0.13333333 0.77254902 0.36862745
v 31.20000076 -98.01000214 80.09999847 0.13333333 0.77254902 0.36862745
v 31.20000076 -98.01000214 90.09999847 0.13333333 0.77254902 0.36862745
v 31.46794891 -98.01000214 91.09999847 0.13333333 0.77254902 0.36862745
v 32.20000076 -98.01000214 91.83205414 0.13333333 0.77254902 0.36862745
v 33.20000076 -98.01000214 92.09999847 0.13333333 0.77254902 0.36862745
v 43.09351730 -98.01000214 69.37741852 0.13333333 0.77254902 0.36862745
v 44.45000076 -98.01000214 70.32723999 0.13333333 0.77254902 0.36862745
v 45.95080948 -98.01000214 71.02707672 0.13333333 0.77254902 0.36862745
v 47.55034256 -98.01000214 71.45567322 0.13333333 0.77254902 0.36862745
v 58.70000076 -106.20999908 45.09999847 0.13333333 0.77254902 0.36862745
v 58.70000076 -106.20999908 62.09999847 0.13333333 0.77254902 0.36862745
v 58.55567551 -106.20999908 63.74965668 0.13333333 0.77254902 0.36862745
v 58.12707901 -106.20999908 65.34918976 0.13333333 0.77254902 0.36862745
v 56.47742081 -106.20999908 68.20648193 0.13333333 0.77254902 0.36862745
v 57.42724228 -106.20999908 66.84999847 0.13333333 0.77254902 0.36862745
v 69.44999695 -106.20999908 45.09999847 0.13333333 0.77254902 0.36862745
v 70.37705231 -106.20999908 45.24682999 0.13333333 0.77254902 0.36862745
v 71.21335602 -106.20999908 45.67295074 0.13333333 0.77254902 0.36862745
v 71.87705231 -106.20999908 46.33664322 0.13333333 0.77254902 0.36862745
v 72.30316925 -106.20999908 47.17295074 0.13333333 0.77254902 0.36862745
v 72.44999695 -106.20999908 48.09999847 0.13333333 0.77254902 0.36862745
v 72.44999695 -104.09683228 56.00000000 0.13333333 0.77254902 0.36862745
v 72.44999695 -104.04185486 55.58236313 0.13333333 0.77254902 0.36862745
v 72.44999695 -104.04185486 56.41763687 0.13333333 0.77254902 0.36862745
v 72.44999695 -104.02557373 55.47638321 0.13333333 0.77254902 0.36862745
v 72.44999695 -104.02557373 56.52361679 0.13333333 0.77254902 0.36862745
v 72.44999695 -103.86206055 55.08163071 0.13333333 0.77254902 0.36862745
v 72.44999695 -103.81281281 54.98143005 0.13333333 0.77254902 0.36862745
v 72.86763763 -104.04185486 56.00000000 0.13333333 0.77254902 0.36862745
v 72.90055847 -103.95221710 55.44943619 0.13333333 0.77254902 0.36862745
v 72.90055847 -103.95221710 56.55056381 0.13333333 0.77254902 0.36862745
v 72.92269135 -103.67461395 54.89365005 0.13333333 0.77254902 0.36862745
v 73.34999847 -103.84204865 56.00000000 0.13333333 0.77254902 0.36862745
v 73.45635223 -103.67461395 55.42731094 0.13333333 0.77254902 0.36862745
v 73.45635223 -103.67461395 56.57268906 0.13333333 0.77254902 0.36862745
v 72.44999695 -103.55047607 54.63954544 0.13333333 0.77254902 0.36862745
v 72.44999695 -103.47045898 54.55952454 0.13333333 0.77254902 0.36862745
v 73.76421356 -103.52421570 56.00000000 0.13333333 0.77254902 0.36862745
v 73.50469971 -103.26470184 54.84529877 0.13333333 0.77254902 0.36862745
v 72.92269135 -103.21634674 54.43538666 0.13333333 0.77254902 0.36862745
v 73.91461182 -103.21634674 55.42731094 0.13333333 0.77254902 0.36862745
v 73.91461182 -103.21634674 56.57268906 0.13333333 0.77254902 0.36862745
v 72.44999695 -103.12857056 54.29718781 0.13333333 0.77254902 0.36862745
v 72.44999695 -103.02836609 54.24794006 0.13333333 0.77254902 0.36862745
v 72.44999695 -102.63362122 54.08443069 0.13333333 0.77254902 0.36862745
v 74.08205414 -103.11000061 56.00000000 0.13333333 0.77254902 0.36862745
v 72.90055847 -102.66056061 54.15778351 0.13333333 0.77254902 0.36862745
v 73.45635223 -102.68268585 54.43538666 0.13333333 0.77254902 0.36862745
v 73.91461182 -102.68268585 54.89365005 0.13333333 0.77254902 0.36862745
v 74.19221497 -102.66056061 55.44943619 0.13333333 0.77254902 0.36862745
v 74.28185272 -102.62763977 56.00000000 0.13333333 0.77254902 0.36862745
v 74.19221497 -102.66056061 56.55056381 0.13333333 0.77254902 0.36862745
v 72.44999695 -102.52764130 54.06814957 0.13333333 0.77254902 0.36862745
v 72.44999695 -103.86206055 56.91836929 0.13333333 0.77254902 0.36862745
v 72.44999695 -103.81281281 57.01856995 0.13333333 0.77254902 0.36862745
v 72.92269135 -103.67461395 57.10634995 0.13333333 0.77254902 0.36862745
v 72.44999695 -103.55047607 57.36045456 0.13333333 0.77254902 0.36862745
v 72.44999695 -103.47045898 57.44047546 0.13333333 0.77254902 0.36862745
v 73.50469971 -103.26470184 57.15470123 0.13333333 0.77254902 0.36862745
v 72.92269135 -103.21634674 57.56461334 0.13333333 0.77254902 0.36862745
v 72.44999695 -103.12857056 57.70281219 0.13333333 0.77254902 0.36862745
v 72.44999695 -103.02836609 57.75205994 0.13333333 0.77254902 0.36862745
v 72.44999695 -102.63362122 57.91556931 0.13333333 0.77254902 0.36862745
v 73.45635223 -102.68268585 57.56461334 0.13333333 0.77254902 0.36862745
v 72.90055847 -102.66056061 57.84221649 0.13333333 0.77254902 0.36862745
v 73.91461182 -102.68268585 57.10634995 0.13333333 0.77254902 0.36862745
v 72.44999695 -102.52764130 57.93185043 0.13333333 0.77254902 0.36862745
v 50.84965897 -106.20999908 71.45567322 0.13333333 0.77254902 0.36862745
v 49.20000076 -106.20999908 71.59999847 0.13333333 0.77254902 0.36862745
v 52.44919205 -106.20999908 71.02707672 0.13333333 0.77254902 0.36862745
v 55.30648041 -106.20999908 69.37741852 0.13333333 0.77254902 0.36862745
v 53.95000076 -106.20999908 70.32723999 0.13333333 0.77254902 0.36862745
v 66.93205261 -106.20999908 79.09999847 0.13333333 0.77254902 0.36862745
v 67.19999695 -106.20999908 80.09999847 0.13333333 0.77254902 0.36862745
v 69.44999695 -106.20999908 79.09999847 0.13333333 0.77254902 0.36862745
v 70.37705231 -106.20999908 78.95317078 0.13333333 0.77254902 0.36862745
v 72.44999695 -106.20999908 76.09999847 0.13333333 0.77254902 0.36862745
v 72.30316925 -106.20999908 77.02705383 0.13333333 0.77254902 0.36862745
v 71.87705231 -106.20999908 77.86335754 0.13333333 0.77254902 0.36862745
v 71.21335602 -106.20999908 78.52705383 0.13333333 0.77254902 0.36862745
v 65.19999695 -106.20999908 92.09999847 0.13333333 0.77254902 0.36862745
v 66.19999695 -106.20999908 91.83205414 0.13333333 0.77254902 0.36862745
v 67.19999695 -106.20999908 90.09999847 0.13333333 0.77254902 0.36862745
v 66.93205261 -106.20999908 91.09999847 0.13333333 0.77254902 0.36862745
v 58.70000076 -98.01000214 45.09999847 0.13333333 0.77254902 0.36862745
v 58.70000076 -98.01000214 62.09999847 0.13333333 0.77254902 0.36862745
v 58.55567551 -98.01000214 63.74965668 0.13333333 0.77254902 0.36862745
v 58.12707901 -98.01000214 65.34918976 0.13333333 0.77254902 0.36862745
v 56.47742081 -98.01000214 68.20648193 0.13333333 0.77254902 0.36862745
v 57.42724228 -98.01000214 66.84999847 0.13333333 0.77254902 0.36862745
v 72.44999695 -102.11000061 54.01316452 0.13333333 0.77254902 0.36862745
v 72.44999695 -101.69235992 54.06814957 0.13333333 0.77254902 0.36862745
v 72.86763763 -102.11000061 54.06814957 0.13333333 0.77254902 0.36862745
v 73.34999847 -102.11000061 54.26794815 0.13333333 0.77254902 0.36862745
v 73.76421356 -102.11000061 54.58578491 0.13333333 0.77254902 0.36862745
v 74.08205414 -102.11000061 55.00000000 0.13333333 0.77254902 0.36862745
v 74.28185272 -102.11000061 55.48236084 0.13333333 0.77254902 0.36862745
v 74.34999847 -102.11000061 56.00000000 0.13333333 0.77254902 0.36862745
v 74.28185272 -102.11000061 56.51763916 0.13333333 0.77254902 0.36862745
v 72.44999695 -101.58638000 54.08443069 0.13333333 0.77254902 0.36862745
v 72.44999695 -101.19163513 54.24794006 0.13333333 0.77254902 0.36862745
v 72.44999695 -101.09143066 54.29718781 0.13333333 0.77254902 0.36862745
v 72.90055847 -101.55944061 54.15778351 0.13333333 0.77254902 0.36862745
v 73.45635223 -101.53730774 54.43538666 0.13333333 0.77254902 0.36862745
v 73.91461182 -101.53730774 54.89365005 0.13333333 0.77254902 0.36862745
v 74.19221497 -101.55944061 55.44943619 0.13333333 0.77254902 0.36862745
v 74.28185272 -101.59236145 56.00000000 0.13333333 0.77254902 0.36862745
v 74.19221497 -101.55944061 56.55056381 0.13333333 0.77254902 0.36862745
v 74.08205414 -101.11000061 56.00000000 0.13333333 0.77254902 0.36862745
v 72.44999695 -100.74954224 54.55952454 0.13333333 0.77254902 0.36862745
v 72.44999695 -100.66952515 54.63954544 0.13333333 0.77254902 0.36862745
v 72.92269135 -101.00364685 54.43538666 0.13333333 0.77254902 0.36862745
v 73.50469971 -100.95529938 54.84529877 0.13333333 0.77254902 0.36862745
v 73.91461182 -101.00364685 55.42731094 0.13333333 0.77254902 0.36862745
v 73.91461182 -101.00364685 56.57268906 0.13333333 0.77254902 0.36862745
v 73.76421356 -100.69578552 56.00000000 0.13333333 0.77254902 0.36862745
v 72.44999695 -100.40718842 54.98143005 0.13333333 0.77254902 0.36862745
v 72.44999695 -100.35794067 55.08163071 0.13333333 0.77254902 0.36862745
v 72.44999695 -100.19442749 55.47638321 0.13333333 0.77254902 0.36862745
v 72.44999695 -100.19442749 56.52361679 0.13333333 0.77254902 0.36862745
v 72.44999695 -100.17814636 55.58236313 0.13333333 0.77254902 0.36862745
v 72.44999695 -100.12316895 56.00000000 0.13333333 0.77254902 0.36862745
v 72.44999695 -100.17814636 56.41763687 0.13333333 0.77254902 0.36862745
v 72.92269135 -100.54538727 54.89365005 0.13333333 0.77254902 0.36862745
v 73.45635223 -100.54538727 55.42731094 0.13333333 0.77254902 0.36862745
v 73.45635223 -100.54538727 56.57268906 0.13333333 0.77254902 0.36862745
v 73.34999847 -100.37795258 56.00000000 0.13333333 0.77254902 0.36862745
v 72.90055847 -100.26778412 55.44943619 0.13333333 0.77254902 0.36862745
v 72.90055847 -100.26778412 56.55056381 0.13333333 0.77254902 0.36862745
v 72.86763763 -100.17814636 56.00000000 0.13333333 0.77254902 0.36862745
v 72.44999695 -102.11000061 57.98683548 0.13333333 0.77254902 0.36862745
v 72.44999695 -101.69235992 57.93185043 0.13333333 0.77254902 0.36862745
v 72.86763763 -102.11000061 57.93185043 0.13333333 0.77254902 0.36862745
v 73.34999847 -102.11000061 57.73205185 0.13333333 0.77254902 0.36862745
v 73.76421356 -102.11000061 57.41421509 0.13333333 0.77254902 0.36862745
v 74.08205414 -102.11000061 57.00000000 0.13333333 0.77254902 0.36862745
v 72.44999695 -101.58638000 57.91556931 0.13333333 0.77254902 0.36862745
v 72.44999695 -101.19163513 57.75205994 0.13333333 0.77254902 0.36862745
v 72.44999695 -101.09143066 57.70281219 0.13333333 0.77254902 0.36862745
v 73.45635223 -101.53730774 57.56461334 0.13333333 0.77254902 0.36862745
v 72.90055847 -101.55944061 57.84221649 0.13333333 0.77254902 0.36862745
v 73.91461182 -101.53730774 57.10634995 0.13333333 0.77254902 0.36862745
v 72.44999695 -100.74954224 57.44047546 0.13333333 0.77254902 0.36862745
v 72.44999695 -100.66952515 57.36045456 0.13333333 0.77254902 0.36862745
v 72.92269135 -101.00364685 57.56461334 0.13333333 0.77254902 0.36862745
v 73.50469971 -100.95529938 57.15470123 0.13333333 0.77254902 0.36862745
v 72.44999695 -100.40718842 57.01856995 0.13333333 0.77254902 0.36862745
v 72.44999695 -100.35794067 56.91836929 0.13333333 0.77254902 0.36862745
v 72.92269135 -100.54538727 57.10634995 0.13333333 0.77254902 0.36862745
v 69.44999695 -98.01000214 45.09999847 0.13333333 0.77254902 0.36862745
v 70.37705231 -98.01000214 45.24682999 0.13333333 0.77254902 0.36862745
v 71.21335602 -98.01000214 45.67295074 0.13333333 0.77254902 0.36862745
v 71.87705231 -98.01000214 46.33664322 0.13333333 0.77254902 0.36862745
v 72.30316925 -98.01000214 47.17295074 0.13333333 0.77254902 0.36862745
v 72.44999695 -98.01000214 48.09999847 0.13333333 0.77254902 0.36862745
v 50.84965897 -98.01000214 71.45567322 0.13333333 0.77254902 0.36862745
v 49.20000076 -98.01000214 71.59999847 0.13333333 0.77254902 0.36862745
v 52.44919205 -98.01000214 71.02707672 0.13333333 0.77254902 0.36862745
v 55.30648041 -98.01000214 69.37741852 0.13333333 0.77254902 0.36862745
v 53.95000076 -98.01000214 70.32723999 0.13333333 0.77254902 0.36862745
v 66.93205261 -98.01000214 79.09999847 0.13333333 0.77254902 0.36862745
v 67.19999695 -98.01000214 80.09999847 0.13333333 0.77254902 0.36862745
v 69.44999695 -98.01000214 79.09999847 0.13333333 0.77254902 0.36862745
v 70.37705231 -98.01000214 78.95317078 0.13333333 0.77254902 0.36862745
v 72.44999695 -98.01000214 76.09999847 0.13333333 0.77254902 0.36862745
v 72.30316925 -98.01000214 77.02705383 0.13333333 0.77254902 0.36862745
v 71.87705231 -98.01000214 77.86335754 0.13333333 0.77254902 0.36862745
v 71.21335602 -98.01000214 78.52705383 0.13333333 0.77254902 0.36862745
v 65.19999695 -98.01000214 92.09999847 0.13333333 0.77254902 0.36862745
v 66.19999695 -98.01000214 91.83205414 0.13333333 0.77254902 0.36862745
v 67.19999695 -98.01000214 90.09999847 0.13333333 0.77254902 0.36862745
v 66.93205261 -98.01000214 91.09999847 0.13333333 0.77254902 0.36862745
f 4 15 17
f 4 17 19
f 4 14 15
f 4 16 14
f 4 18 16
f 4 19 20
f 4 20 26
f 4 26 27
f 4 27 35
f 5 6 54
f 6 53 54
f 2 54 3
f 2 1 54
f 1 5 54
f 3 54 4
f 4 59 18
f 59 40 18
f 59 41 40
f 59 44 41
f 59 45 44
f 59 49 45
f 4 54 59
f 54 55 59
f 55 56 59
f 134 1 2
f 135 2 3
f 136 3 4
f 138 5 1
f 139 6 5
f 4 35 36
f 4 36 37
f 4 37 38
f 4 38 82
f 4 82 83
f 4 83 91
f 140 53 6
f 59 50 49
f 59 51 50
f 59 52 51
f 59 119 52
f 59 120 119
f 59 124 120
f 59 125 124
f 59 126 125
f 59 129 126
f 59 130 129
f 141 54 53
f 142 55 54
f 143 56 55
f 144 57 56
f 145 58 57
f 58 60 59
f 58 61 60
f 56 57 59
f 57 58 59
f 58 62 61
f 58 63 62
f 58 64 63
f 58 65 64
f 65 73 66
f 66 73 67
f 146 59 60
f 147 60 61
f 148 61 62
f 149 62 63
f 150 63 64
f 151 64 65
f 152 65 66
f 153 66 67
f 154 67 68
f 155 68 69
f 156 69 70
f 58 71 65
f 65 71 72
f 65 72 73
f 67 73 74
f 67 74 68
f 68 74 69
f 69 74 70
f 70 74 233
f 58 158 71
f 159 72 71
f 160 73 72
f 161 74 73
f 74 309 221
f 157 70 233
f 137 4 91
f 135 134 2
f 135 3 136
f 136 4 137
f 134 138 1
f 138 139 5
f 137 91 92
f 137 92 93
f 139 140 6
f 137 93 99
f 137 99 100
f 137 100 108
f 137 108 109
f 137 109 110
f 137 110 112
f 137 112 113
f 137 113 114
f 137 114 111
f 138 141 139
f 139 141 140
f 135 136 141
f 135 141 134
f 134 141 138
f 136 137 141
f 146 132 130
f 146 133 132
f 146 111 133
f 137 111 146
f 137 146 141
f 141 146 142
f 142 146 143
f 140 141 53
f 141 142 54
f 142 143 55
f 143 144 56
f 144 145 57
f 145 158 58
f 146 130 59
f 146 60 147
f 147 61 148
f 148 62 149
f 149 63 150
f 150 64 151
f 151 65 152
f 152 66 153
f 153 67 154
f 154 68 155
f 155 69 156
f 156 70 157
f 145 146 147
f 145 147 148
f 143 146 144
f 144 146 145
f 145 148 149
f 145 149 150
f 145 150 151
f 145 151 152
f 152 153 160
f 153 154 160
f 158 159 71
f 159 160 72
f 160 161 73
f 161 309 74
f 145 152 158
f 152 159 158
f 152 160 159
f 154 161 160
f 154 155 161
f 155 156 161
f 156 157 161
f 157 321 161
f 237 162 163
f 238 163 164
f 239 164 165
f 241 166 223
f 240 165 167
f 242 167 166
f 162 168 163
f 163 168 169
f 163 169 170
f 163 170 171
f 163 171 172
f 163 172 173
f 173 177 175
f 173 179 177
f 173 175 174
f 173 174 176
f 173 176 178
f 173 180 179
f 173 188 180
f 173 189 188
f 173 195 189
f 163 173 229
f 163 229 164
f 164 229 165
f 173 178 229
f 229 178 206
f 229 206 207
f 229 207 209
f 302 168 162
f 303 169 168
f 304 170 169
f 305 171 170
f 306 172 171
f 307 173 172
f 173 196 195
f 173 197 196
f 307 197 173
f 74 221 233
f 220 233 221
f 220 222 226
f 222 224 225
f 224 223 225
f 166 225 223
f 220 226 235
f 220 235 236
f 220 234 233
f 220 236 234
f 308 220 221
f 310 222 220
f 312 224 222
f 311 223 224
f 167 165 229
f 167 229 166
f 166 229 230
f 166 230 231
f 222 225 226
f 166 227 225
f 166 228 227
f 166 232 228
f 166 231 232
f 314 226 225
f 313 225 227
f 316 228 232
f 315 227 228
f 318 230 229
f 320 232 231
f 319 231 230
f 317 229 209
f 323 235 226
f 321 233 234
f 322 234 236
f 324 236 235
f 237 163 238
f 238 164 239
f 239 165 240
f 242 166 241
f 242 240 167
f 237 302 162
f 302 303 168
f 303 304 169
f 304 305 170
f 305 306 171
f 306 307 172
f 307 205 197
f 307 243 205
f 307 244 243
f 307 252 244
f 307 253 252
f 307 254 253
f 317 209 210
f 317 210 213
f 317 213 214
f 317 214 215
f 317 215 219
f 317 219 283
f 317 283 284
f 317 284 289
f 317 289 290
f 317 290 291
f 237 238 302
f 238 303 302
f 238 304 303
f 238 305 304
f 238 306 305
f 238 307 306
f 307 262 254
f 307 263 262
f 307 269 263
f 307 270 269
f 307 271 270
f 307 273 271
f 307 274 273
f 307 275 274
f 307 272 275
f 238 317 307
f 238 239 317
f 239 240 317
f 317 291 295
f 317 295 296
f 317 296 299
f 317 299 300
f 317 300 272
f 307 317 272
f 308 310 220
f 308 221 309
f 310 312 222
f 312 311 224
f 241 223 311
f 157 233 321
f 161 321 309
f 308 309 321
f 308 314 310
f 310 313 312
f 312 313 311
f 241 311 313
f 308 323 314
f 308 324 323
f 308 321 322
f 308 322 324
f 313 314 225
f 313 227 315
f 316 232 320
f 315 228 316
f 317 318 229
f 318 319 230
f 320 231 319
f 314 323 226
f 321 234 322
f 323 324 235
f 322 236 324
f 242 317 240
f 242 241 317
f 241 318 317
f 241 319 318
f 310 314 313
f 241 313 315
f 241 315 316
f 241 316 320
f 241 320 319
f 8 7 11
f 7 9 11
f 10 8 12
f 8 11 12
f 11 9 13
f 12 11 21
f 11 13 21
f 9 39 13
f 8 19 17
f 7 15 14
f 7 14 16
f 8 17 15
f 8 15 7
f 7 16 9
f 9 16 18
f 9 18 40
f 10 20 19
f 10 19 8
f 10 26 20
f 10 12 22
f 12 21 24
f 13 25 21
f 22 12 24
f 10 22 23
f 24 21 28
f 13 42 25
f 21 25 28
f 10 27 26
f 10 23 27
f 23 35 27
f 22 24 29
f 23 22 30
f 24 28 32
f 25 34 28
f 24 32 29
f 22 29 30
f 23 30 31
f 32 28 33
f 25 46 34
f 28 34 33
f 23 36 35
f 23 31 36
f 31 37 36
f 30 29 75
f 29 32 76
f 31 30 77
f 32 33 79
f 33 34 81
f 32 79 76
f 29 76 75
f 30 75 77
f 31 77 78
f 33 80 79
f 33 81 80
f 34 115 81
f 31 38 37
f 31 78 38
f 78 82 38
f 9 40 39
f 39 40 41
f 39 41 44
f 13 39 42
f 39 43 42
f 39 44 45
f 39 45 43
f 43 45 49
f 25 42 46
f 42 43 47
f 42 47 46
f 43 48 47
f 43 49 50
f 43 50 48
f 48 50 51
f 34 46 115
f 46 47 116
f 47 48 117
f 46 116 115
f 47 117 116
f 48 118 117
f 48 51 52
f 48 52 118
f 118 52 119
f 76 79 87
f 75 76 84
f 77 75 85
f 78 77 86
f 79 80 88
f 80 81 88
f 81 115 89
f 75 84 85
f 84 76 87
f 77 85 86
f 79 88 87
f 81 89 88
f 78 83 82
f 78 86 83
f 86 91 83
f 84 87 96
f 85 84 95
f 86 85 94
f 87 88 90
f 88 89 90
f 89 121 97
f 84 96 95
f 85 95 94
f 87 90 96
f 89 97 90
f 86 92 91
f 86 94 92
f 94 93 92
f 95 96 102
f 94 95 101
f 96 90 98
f 90 97 98
f 97 128 103
f 95 102 101
f 96 98 102
f 98 97 103
f 94 99 93
f 94 101 99
f 101 100 99
f 101 102 105
f 102 98 104
f 98 103 104
f 103 131 106
f 102 104 105
f 104 103 106
f 105 104 107
f 104 106 107
f 101 108 100
f 101 109 108
f 101 105 109
f 105 110 109
f 105 112 110
f 105 107 112
f 106 133 111
f 107 106 114
f 106 111 114
f 107 113 112
f 107 114 113
f 115 116 121
f 116 117 122
f 117 118 123
f 89 115 121
f 116 122 121
f 117 123 122
f 118 119 120
f 118 120 123
f 123 120 124
f 121 122 128
f 122 123 127
f 121 128 97
f 122 127 128
f 123 124 125
f 123 125 127
f 127 125 126
f 128 127 131
f 103 128 131
f 127 126 129
f 127 129 130
f 127 130 131
f 131 130 132
f 131 132 133
f 106 131 133
f 182 177 179
f 181 174 175
f 181 176 174
f 182 175 177
f 182 181 175
f 181 183 176
f 183 178 176
f 183 206 178
f 184 179 180
f 184 182 179
f 184 180 188
f 182 185 181
f 181 185 183
f 184 186 182
f 182 186 185
f 185 187 183
f 186 190 185
f 183 187 208
f 185 190 187
f 192 188 189
f 184 188 192
f 192 189 195
f 184 191 186
f 186 193 190
f 187 190 194
f 184 192 191
f 191 193 186
f 193 198 190
f 187 194 211
f 190 198 194
f 192 195 196
f 192 196 199
f 199 196 197
f 192 200 191
f 191 201 193
f 193 202 198
f 194 198 204
f 192 199 200
f 191 200 201
f 193 201 202
f 202 203 198
f 194 204 218
f 198 203 204
f 199 197 205
f 199 205 245
f 245 205 243
f 199 246 200
f 200 247 201
f 201 248 202
f 202 249 203
f 203 251 204
f 199 245 246
f 200 246 247
f 201 247 248
f 202 248 249
f 203 249 250
f 203 250 251
f 204 251 288
f 183 208 206
f 208 207 206
f 208 209 207
f 208 210 209
f 208 212 210
f 212 213 210
f 187 211 208
f 208 211 212
f 212 214 213
f 212 217 214
f 217 215 214
f 211 216 212
f 194 218 211
f 212 216 217
f 211 218 216
f 217 219 215
f 217 285 219
f 285 283 219
f 216 286 217
f 218 287 216
f 204 288 218
f 216 287 286
f 217 286 285
f 218 288 287
f 245 243 244
f 245 244 255
f 255 244 252
f 245 255 246
f 246 256 247
f 247 257 248
f 248 258 249
f 249 259 250
f 250 259 251
f 251 260 288
f 246 255 256
f 247 256 257
f 257 258 248
f 249 258 259
f 251 259 260
f 255 252 253
f 255 253 264
f 264 253 254
f 255 264 256
f 256 265 257
f 257 266 258
f 258 261 259
f 259 261 260
f 260 267 294
f 256 264 265
f 257 265 266
f 258 266 261
f 260 261 267
f 264 254 262
f 264 262 263
f 264 263 276
f 264 276 265
f 265 277 266
f 266 268 261
f 261 268 267
f 267 278 298
f 265 276 277
f 266 277 268
f 268 278 267
f 276 263 269
f 276 269 270
f 276 270 280
f 280 270 271
f 280 271 273
f 280 273 282
f 281 272 300
f 282 275 281
f 281 275 272
f 282 273 274
f 282 274 275
f 276 280 277
f 277 279 268
f 278 281 301
f 268 279 278
f 277 280 279
f 279 281 278
f 280 282 279
f 279 282 281
f 285 284 283
f 285 293 284
f 293 289 284
f 287 292 286
f 286 293 285
f 288 294 287
f 286 292 293
f 287 294 292
f 260 294 288
f 293 290 289
f 293 297 290
f 297 291 290
f 292 297 293
f 294 298 292
f 292 298 297
f 294 267 298
f 297 295 291
f 297 296 295
f 297 301 296
f 298 301 297
f 278 301 298
f 301 299 296
f 301 300 299
f 281 300 301

