# https://github.com/mikedh/trimesh
v 0.00000000 -48.15000153 0.00000000 0.27843137 0.33333333 0.41176471
v 0.00000000 -37.75000000 3.00000000 0.27843137 0.33333333 0.41176471
v 1.00000000 -37.75000000 3.00000000 0.27843137 0.33333333 0.41176471
v 0.00000000 -34.25000000 3.00000000 0.27843137 0.33333333 0.41176471
v 1.00000000 -34.25000000 3.00000000 0.27843137 0.33333333 0.41176471
v 0.00000000 -25.75000000 3.00000000 0.27843137 0.33333333 0.41176471
v 1.00000000 -25.75000000 3.00000000 0.27843137 0.33333333 0.41176471
v 0.00000000 -48.15000153 38.09000015 0.27843137 0.33333333 0.41176471
v 0.00000000 -37.75000000 35.09000015 0.27843137 0.33333333 0.41176471
v 1.00000000 -37.75000000 35.09000015 0.27843137 0.33333333 0.41176471
v 0.00000000 -34.25000000 35.09000015 0.27843137 0.33333333 0.41176471
v 1.00000000 -34.25000000 35.09000015 0.27843137 0.33333333 0.41176471
v 0.00000000 -25.75000000 35.09000015 0.27843137 0.33333333 0.41176471
v 1.00000000 -25.75000000 35.09000015 0.27843137 0.33333333 0.41176471
v 0.00000000 -22.25000000 3.00000000 0.27843137 0.33333333 0.41176471
v 1.00000000 -22.25000000 3.00000000 0.27843137 0.33333333 0.41176471
v 0.00000000 -13.75000000 3.00000000 0.27843137 0.33333333 0.41176471
v 1.00000000 -13.75000000 3.00000000 0.27843137 0.33333333 0.41176471
v 0.00000000 -10.25000000 3.00000000 0.27843137 0.33333333 0.41176471
v 1.00000000 -10.25000000 3.00000000 0.27843137 0.33333333 0.41176471
v 0.00000000 0.00000000 0.00000000 0.27843137 0.33333333 0.41176471
v 15.00000000 -2.00000000 0.00000000 0.27843137 0.33333333 0.41176471
v 15.00000000 0.00000000 0.00000000 0.27843137 0.33333333 0.41176471
v 15.00000000 -2.00000000 10.00000000 0.27843137 0.33333333 0.41176471
v 15.00000000 0.00000000 10.00000000 0.27843137 0.33333333 0.41176471
v 37.00000000 -2.00000000 0.00000000 0.27843137 0.33333333 0.41176471
v 37.00000000 0.00000000 0.00000000 0.27843137 0.33333333 0.41176471
v 37.00000000 -2.00000000 10.00000000 0.27843137 0.33333333 0.41176471
v 37.00000000 0.00000000 10.00000000 0.27843137 0.33333333 0.41176471
v 0.00000000 -22.25000000 35.09000015 0.27843137 0.33333333 0.41176471
v 1.00000000 -22.25000000 35.09000015 0.27843137 0.33333333 0.41176471
v 0.00000000 -13.75000000 35.09000015 0.27843137 0.33333333 0.41176471
v 1.00000000 -13.75000000 35.09000015 0.27843137 0.33333333 0.41176471
v 0.00000000 -10.25000000 35.09000015 0.27843137 0.33333333 0.41176471
v 1.00000000 -10.25000000 35.09000015 0.27843137 0.33333333 0.41176471
v 0.00000000 0.00000000 38.09000015 0.27843137 0.33333333 0.41176471
v 111.75000000 -48.15000153 0.00000000 0.27843137 0.33333333 0.41176471
v 111.75000000 -48.15000153 38.09000015 0.27843137 0.33333333 0.41176471
v 111.75000000 0.00000000 0.00000000 0.27843137 0.33333333 0.41176471
v 111.75000000 0.00000000 38.09000015 0.27843137 0.33333333 0.41176471
v -2.00000000 -60.60000000 38.09000000 0.18431373 0.24705882 0.33725490
v -2.00000000 -60.60000000 42.67000000 0.18431373 0.24705882 0.33725490
v -2.00000000 1.50000000 38.09000000 0.18431373 0.24705882 0.33725490
v -2.00000000 1.50000000 42.67000000 0.18431373 0.24705882 0.33725490
v 113.75000000 -60.60000000 38.09000000 0.18431373 0.24705882 0.33725490
v 113.75000000 -60.60000000 42.67000000 0.18431373 0.24705882 0.33725490
v 113.75000000 1.50000000 38.09000000 0.18431373 0.24705882 0.33725490
v 113.75000000 1.50000000 42.67000000 0.18431373 0.24705882 0.33725490
v 21.00000000 0.00000000 31.59000000 0.39215686 0.45490196 0.54509804
v 21.00000000 0.00000000 40.59000000 0.39215686 0.45490196 0.54509804
v 21.00000000 2.50000000 31.59000000 0.39215686 0.45490196 0.54509804
v 21.00000000 2.50000000 40.59000000 0.39215686 0.45490196 0.54509804
v 31.00000000 0.00000000 31.59000000 0.39215686 0.45490196 0.54509804
v 31.00000000 0.00000000 40.59000000 0.39215686 0.45490196 0.54509804
v 31.00000000 2.50000000 31.59000000 0.39215686 0.45490196 0.54509804
v 31.00000000 2.50000000 40.59000000 0.39215686 0.45490196 0.54509804
v 80.00000000 0.00000000 31.59000000 0.39215686 0.45490196 0.54509804
v 80.00000000 0.00000000 40.59000000 0.39215686 0.45490196 0.54509804
v 80.00000000 2.50000000 31.59000000 0.39215686 0.45490196 0.54509804
v 80.00000000 2.50000000 40.59000000 0.39215686 0.45490196 0.54509804
v 90.00000000 0.00000000 31.59000000 0.39215686 0.45490196 0.54509804
v 90.00000000 0.00000000 40.59000000 0.39215686 0.45490196 0.54509804
v 90.00000000 2.50000000 31.59000000 0.39215686 0.45490196 0.54509804
v 90.00000000 2.50000000 40.59000000 0.39215686 0.45490196 0.54509804
v 19.47500000 -28.85000000 -22.37000000 0.11764706 0.16078431 0.23137255
v 32.52500000 -28.85000000 -22.37000000 0.11764706 0.16078431 0.23137255
v 33.17903129 -28.82858923 -22.37000000 0.11764706 0.16078431 0.23137255
v 33.83026192 -28.76444861 -22.37000000 0.11764706 0.16078431 0.23137255
v 34.47590322 -28.65785280 -22.37000000 0.11764706 0.16078431 0.23137255
v 35.11319045 -28.50925826 -22.37000000 0.11764706 0.16078431 0.23137255
v 35.73939465 -28.31930129 -22.37000000 0.11764706 0.16078431 0.23137255
v 36.35183432 -28.08879533 -22.37000000 0.11764706 0.16078431 0.23137255
v 36.94788690 -27.81872742 -22.37000000 0.11764706 0.16078431 0.23137255
v 37.52500000 -27.51025404 -22.37000000 0.11764706 0.16078431 0.23137255
v 38.08070233 -27.16469612 -22.37000000 0.11764706 0.16078431 0.23137255
v 38.61261429 -26.78353340 -22.37000000 0.11764706 0.16078431 0.23137255
v 39.11845815 -26.36839807 -22.37000000 0.11764706 0.16078431 0.23137255
v 39.59606781 -25.92106781 -22.37000000 0.11764706 0.16078431 0.23137255
v 40.04339807 -25.44345815 -22.37000000 0.11764706 0.16078431 0.23137255
v 40.45853340 -24.93761429 -22.37000000 0.11764706 0.16078431 0.23137255
v 40.83969612 -24.40570233 -22.37000000 0.11764706 0.16078431 0.23137255
v 41.18525404 -23.85000000 -22.37000000 0.11764706 0.16078431 0.23137255
v 41.49372742 -23.27288690 -22.37000000 0.11764706 0.16078431 0.23137255
v 41.76379533 -22.67683432 -22.37000000 0.11764706 0.16078431 0.23137255
v 41.99430129 -22.06439465 -22.37000000 0.11764706 0.16078431 0.23137255
v 42.18425826 -21.43819045 -22.37000000 0.11764706 0.16078431 0.23137255
v 42.33285280 -20.80090322 -22.37000000 0.11764706 0.16078431 0.23137255
v 42.43944861 -20.15526192 -22.37000000 0.11764706 0.16078431 0.23137255
v 42.50358923 -19.50403129 -22.37000000 0.11764706 0.16078431 0.23137255
v 42.52500000 -18.85000000 -22.37000000 0.11764706 0.16078431 0.23137255
v 42.52500000 -16.15000000 -22.37000000 0.11764706 0.16078431 0.23137255
v 42.50358923 -15.49596871 -22.37000000 0.11764706 0.16078431 0.23137255
v 42.43944861 -14.84473808 -22.37000000 0.11764706 0.16078431 0.23137255
v 42.33285280 -14.19909678 -22.37000000 0.11764706 0.16078431 0.23137255
v 42.18425826 -13.56180955 -22.37000000 0.11764706 0.16078431 0.23137255
v 41.99430129 -12.93560535 -22.37000000 0.11764706 0.16078431 0.23137255
v 41.76379533 -12.32316568 -22.37000000 0.11764706 0.16078431 0.23137255
v 41.49372742 -11.72711310 -22.37000000 0.11764706 0.16078431 0.23137255
v 41.18525404 -11.15000000 -22.37000000 0.11764706 0.16078431 0.23137255
v 40.83969612 -10.59429767 -22.37000000 0.11764706 0.16078431 0.23137255
v 40.45853340 -10.06238571 -22.37000000 0.11764706 0.16078431 0.23137255
v 40.04339807 -9.55654185 -22.37000000 0.11764706 0.16078431 0.23137255
v 39.59606781 -9.07893219 -22.37000000 0.11764706 0.16078431 0.23137255
v 39.11845815 -8.63160193 -22.37000000 0.11764706 0.16078431 0.23137255
v 38.61261429 -8.21646660 -22.37000000 0.11764706 0.16078431 0.23137255
v 38.08070233 -7.83530388 -22.37000000 0.11764706 0.16078431 0.23137255
v 37.52500000 -7.48974596 -22.37000000 0.11764706 0.16078431 0.23137255
v 36.94788690 -7.18127258 -22.37000000 0.11764706 0.16078431 0.23137255
v 36.35183432 -6.91120467 -22.37000000 0.11764706 0.16078431 0.23137255
v 35.73939465 -6.68069871 -22.37000000 0.11764706 0.16078431 0.23137255
v 35.11319045 -6.49074174 -22.37000000 0.11764706 0.16078431 0.23137255
v 34.47590322 -6.34214720 -22.37000000 0.11764706 0.16078431 0.23137255
v 33.83026192 -6.23555139 -22.37000000 0.11764706 0.16078431 0.23137255
v 33.17903129 -6.17141077 -22.37000000 0.11764706 0.16078431 0.23137255
v 32.52500000 -6.15000000 -22.37000000 0.11764706 0.16078431 0.23137255
v 19.47500000 -6.15000000 -22.37000000 0.11764706 0.16078431 0.23137255
v 18.82096871 -6.17141077 -22.37000000 0.11764706 0.16078431 0.23137255
v 18.16973808 -6.23555139 -22.37000000 0.11764706 0.16078431 0.23137255
v 17.52409678 -6.34214720 -22.37000000 0.11764706 0.16078431 0.23137255
v 16.88680955 -6.49074174 -22.37000000 0.11764706 0.16078431 0.23137255
v 16.26060535 -6.68069871 -22.37000000 0.11764706 0.16078431 0.23137255
v 15.64816568 -6.91120467 -22.37000000 0.11764706 0.16078431 0.23137255
v 15.05211310 -7.18127258 -22.37000000 0.11764706 0.16078431 0.23137255
v 14.47500000 -7.48974596 -22.37000000 0.11764706 0.16078431 0.23137255
v 13.91929767 -7.83530388 -22.37000000 0.11764706 0.16078431 0.23137255
v 13.38738571 -8.21646660 -22.37000000 0.11764706 0.16078431 0.23137255
v 12.88154185 -8.63160193 -22.37000000 0.11764706 0.16078431 0.23137255
v 12.40393219 -9.07893219 -22.37000000 0.11764706 0.16078431 0.23137255
v 11.95660193 -9.55654185 -22.37000000 0.11764706 0.16078431 0.23137255
v 11.54146660 -10.06238571 -22.37000000 0.11764706 0.16078431 0.23137255
v 11.16030388 -10.59429767 -22.37000000 0.11764706 0.16078431 0.23137255
v 10.81474596 -11.15000000 -22.37000000 0.11764706 0.16078431 0.23137255
v 10.50627258 -11.72711310 -22.37000000 0.11764706 0.16078431 0.23137255
v 10.23620467 -12.32316568 -22.37000000 0.11764706 0.16078431 0.23137255
v 10.00569871 -12.93560535 -22.37000000 0.11764706 0.16078431 0.23137255
v 9.81574174 -13.56180955 -22.37000000 0.11764706 0.16078431 0.23137255
v 9.66714720 -14.19909678 -22.37000000 0.11764706 0.16078431 0.23137255
v 9.56055139 -14.84473808 -22.37000000 0.11764706 0.16078431 0.23137255
v 9.49641077 -15.49596871 -22.37000000 0.11764706 0.16078431 0.23137255
v 9.47500000 -16.15000000 -22.37000000 0.11764706 0.16078431 0.23137255
v 9.47500000 -18.85000000 -22.37000000 0.11764706 0.16078431 0.23137255
v 9.49641077 -19.50403129 -22.37000000 0.11764706 0.16078431 0.23137255
v 9.56055139 -20.15526192 -22.37000000 0.11764706 0.16078431 0.23137255
v 9.66714720 -20.80090322 -22.37000000 0.11764706 0.16078431 0.23137255
v 9.81574174 -21.43819045 -22.37000000 0.11764706 0.16078431 0.23137255
v 10.00569871 -22.06439465 -22.37000000 0.11764706 0.16078431 0.23137255
v 10.23620467 -22.67683432 -22.37000000 0.11764706 0.16078431 0.23137255
v 10.50627258 -23.27288690 -22.37000000 0.11764706 0.16078431 0.23137255
v 10.81474596 -23.85000000 -22.37000000 0.11764706 0.16078431 0.23137255
v 11.16030388 -24.40570233 -22.37000000 0.11764706 0.16078431 0.23137255
v 11.54146660 -24.93761429 -22.37000000 0.11764706 0.16078431 0.23137255
v 11.95660193 -25.44345815 -22.37000000 0.11764706 0.16078431 0.23137255
v 12.40393219 -25.92106781 -22.37000000 0.11764706 0.16078431 0.23137255
v 12.88154185 -26.36839807 -22.37000000 0.11764706 0.16078431 0.23137255
v 13.38738571 -26.78353340 -22.37000000 0.11764706 0.16078431 0.23137255
v 13.91929767 -27.16469612 -22.37000000 0.11764706 0.16078431 0.23137255
v 14.47500000 -27.51025404 -22.37000000 0.11764706 0.16078431 0.23137255
v 15.05211310 -27.81872742 -22.37000000 0.11764706 0.16078431 0.23137255
v 15.64816568 -28.08879533 -22.37000000 0.11764706 0.16078431 0.23137255
v 16.26060535 -28.31930129 -22.37000000 0.11764706 0.16078431 0.23137255
v 16.88680955 -28.50925826 -22.37000000 0.11764706 0.16078431 0.23137255
v 17.52409678 -28.65785280 -22.37000000 0.11764706 0.16078431 0.23137255
v 18.16973808 -28.76444861 -22.37000000 0.11764706 0.16078431 0.23137255
v 18.82096871 -28.82858923 -22.37000000 0.11764706 0.16078431 0.23137255
v 33.06130566 -27.03244317 -22.37000000 0.11764706 0.16078431 0.23137255
v 32.52500000 -27.05000000 -22.37000000 0.11764706 0.16078431 0.23137255
v 19.47500000 -27.05000000 -22.37000000 0.11764706 0.16078431 0.23137255
v 18.93869434 -27.03244317 -22.37000000 0.11764706 0.16078431 0.23137255
v 18.40468522 -26.97984786 -22.37000000 0.11764706 0.16078431 0.23137255
v 17.87525936 -26.89243930 -22.37000000 0.11764706 0.16078431 0.23137255
v 17.35268383 -26.77059178 -22.37000000 0.11764706 0.16078431 0.23137255
v 16.83919638 -26.61482706 -22.37000000 0.11764706 0.16078431 0.23137255
v 16.33699585 -26.42581217 -22.37000000 0.11764706 0.16078431 0.23137255
v 15.84823274 -26.20435648 -22.37000000 0.11764706 0.16078431 0.23137255
v 15.37500000 -25.95140831 -22.37000000 0.11764706 0.16078431 0.23137255
v 14.91932409 -25.66805082 -22.37000000 0.11764706 0.16078431 0.23137255
v 14.48315628 -25.35549739 -22.37000000 0.11764706 0.16078431 0.23137255
v 14.06836432 -25.01508642 -22.37000000 0.11764706 0.16078431 0.23137255
v 13.67672439 -24.64827561 -22.37000000 0.11764706 0.16078431 0.23137255
v 13.30991358 -24.25663568 -22.37000000 0.11764706 0.16078431 0.23137255
v 12.96950261 -23.84184372 -22.37000000 0.11764706 0.16078431 0.23137255
v 12.65694918 -23.40567591 -22.37000000 0.11764706 0.16078431 0.23137255
v 12.37359169 -22.95000000 -22.37000000 0.11764706 0.16078431 0.23137255
v 12.12064352 -22.47676726 -22.37000000 0.11764706 0.16078431 0.23137255
v 11.89918783 -21.98800415 -22.37000000 0.11764706 0.16078431 0.23137255
v 11.71017294 -21.48580362 -22.37000000 0.11764706 0.16078431 0.23137255
v 11.55440822 -20.97231617 -22.37000000 0.11764706 0.16078431 0.23137255
v 11.43256070 -20.44974064 -22.37000000 0.11764706 0.16078431 0.23137255
v 11.34515214 -19.92031478 -22.37000000 0.11764706 0.16078431 0.23137255
v 11.29255683 -19.38630566 -22.37000000 0.11764706 0.16078431 0.23137255
v 11.27500000 -18.85000000 -22.37000000 0.11764706 0.16078431 0.23137255
v 11.27500000 -16.15000000 -22.37000000 0.11764706 0.16078431 0.23137255
v 11.29255683 -15.61369434 -22.37000000 0.11764706 0.16078431 0.23137255
v 11.34515214 -15.07968522 -22.37000000 0.11764706 0.16078431 0.23137255
v 11.43256070 -14.55025936 -22.37000000 0.11764706 0.16078431 0.23137255
v 11.55440822 -14.02768383 -22.37000000 0.11764706 0.16078431 0.23137255
v 11.71017294 -13.51419638 -22.37000000 0.11764706 0.16078431 0.23137255
v 11.89918783 -13.01199585 -22.37000000 0.11764706 0.16078431 0.23137255
v 12.12064352 -12.52323274 -22.37000000 0.11764706 0.16078431 0.23137255
v 12.37359169 -12.05000000 -22.37000000 0.11764706 0.16078431 0.23137255
v 12.65694918 -11.59432409 -22.37000000 0.11764706 0.16078431 0.23137255
v 12.96950261 -11.15815628 -22.37000000 0.11764706 0.16078431 0.23137255
v 13.30991358 -10.74336432 -22.37000000 0.11764706 0.16078431 0.23137255
v 13.67672439 -10.35172439 -22.37000000 0.11764706 0.16078431 0.23137255
v 14.06836432 -9.98491358 -22.37000000 0.11764706 0.16078431 0.23137255
v 14.48315628 -9.64450261 -22.37000000 0.11764706 0.16078431 0.23137255
v 14.91932409 -9.33194918 -22.37000000 0.11764706 0.16078431 0.23137255
v 15.37500000 -9.04859169 -22.37000000 0.11764706 0.16078431 0.23137255
v 15.84823274 -8.79564352 -22.37000000 0.11764706 0.16078431 0.23137255
v 16.33699585 -8.57418783 -22.37000000 0.11764706 0.16078431 0.23137255
v 16.83919638 -8.38517294 -22.37000000 0.11764706 0.16078431 0.23137255
v 17.35268383 -8.22940822 -22.37000000 0.11764706 0.16078431 0.23137255
v 17.87525936 -8.10756070 -22.37000000 0.11764706 0.16078431 0.23137255
v 18.40468522 -8.02015214 -22.37000000 0.11764706 0.16078431 0.23137255
v 18.93869434 -7.96755683 -22.37000000 0.11764706 0.16078431 0.23137255
v 19.47500000 -7.95000000 -22.37000000 0.11764706 0.16078431 0.23137255
v 32.52500000 -7.95000000 -22.37000000 0.11764706 0.16078431 0.23137255
v 33.06130566 -7.96755683 -22.37000000 0.11764706 0.16078431 0.23137255
v 33.59531478 -8.02015214 -22.37000000 0.11764706 0.16078431 0.23137255
v 34.12474064 -8.10756070 -22.37000000 0.11764706 0.16078431 0.23137255
v 34.64731617 -8.22940822 -22.37000000 0.11764706 0.16078431 0.23137255
v 35.16080362 -8.38517294 -22.37000000 0.11764706 0.16078431 0.23137255
v 35.66300415 -8.57418783 -22.37000000 0.11764706 0.16078431 0.23137255
v 36.15176726 -8.79564352 -22.37000000 0.11764706 0.16078431 0.23137255
v 36.62500000 -9.04859169 -22.37000000 0.11764706 0.16078431 0.23137255
v 37.08067591 -9.33194918 -22.37000000 0.11764706 0.16078431 0.23137255
v 37.51684372 -9.64450261 -22.37000000 0.11764706 0.16078431 0.23137255
v 37.93163568 -9.98491358 -22.37000000 0.11764706 0.16078431 0.23137255
v 38.32327561 -10.35172439 -22.37000000 0.11764706 0.16078431 0.23137255
v 38.69008642 -10.74336432 -22.37000000 0.11764706 0.16078431 0.23137255
v 39.03049739 -11.15815628 -22.37000000 0.11764706 0.16078431 0.23137255
v 39.34305082 -11.59432409 -22.37000000 0.11764706 0.16078431 0.23137255
v 39.62640831 -12.05000000 -22.37000000 0.11764706 0.16078431 0.23137255
v 39.87935648 -12.52323274 -22.37000000 0.11764706 0.16078431 0.23137255
v 40.10081217 -13.01199585 -22.37000000 0.11764706 0.16078431 0.23137255
v 40.28982706 -13.51419638 -22.37000000 0.11764706 0.16078431 0.23137255
v 40.44559178 -14.02768383 -22.37000000 0.11764706 0.16078431 0.23137255
v 40.56743930 -14.55025936 -22.37000000 0.11764706 0.16078431 0.23137255
v 40.65484786 -15.07968522 -22.37000000 0.11764706 0.16078431 0.23137255
v 40.70744317 -15.61369434 -22.37000000 0.11764706 0.16078431 0.23137255
v 40.72500000 -16.15000000 -22.37000000 0.11764706 0.16078431 0.23137255
v 40.72500000 -18.85000000 -22.37000000 0.11764706 0.16078431 0.23137255
v 40.70744317 -19.38630566 -22.37000000 0.11764706 0.16078431 0.23137255
v 40.65484786 -19.92031478 -22.37000000 0.11764706 0.16078431 0.23137255
v 40.56743930 -20.44974064 -22.37000000 0.11764706 0.16078431 0.23137255
v 40.44559178 -20.97231617 -22.37000000 0.11764706 0.16078431 0.23137255
v 40.28982706 -21.48580362 -22.37000000 0.11764706 0.16078431 0.23137255
v 40.10081217 -21.98800415 -22.37000000 0.11764706 0.16078431 0.23137255
v 39.87935648 -22.47676726 -22.37000000 0.11764706 0.16078431 0.23137255
v 39.62640831 -22.95000000 -22.37000000 0.11764706 0.16078431 0.23137255
v 39.34305082 -23.40567591 -22.37000000 0.11764706 0.16078431 0.23137255
v 39.03049739 -23.84184372 -22.37000000 0.11764706 0.16078431 0.23137255
v 38.69008642 -24.25663568 -22.37000000 0.11764706 0.16078431 0.23137255
v 38.32327561 -24.64827561 -22.37000000 0.11764706 0.16078431 0.23137255
v 37.93163568 -25.01508642 -22.37000000 0.11764706 0.16078431 0.23137255
v 37.51684372 -25.35549739 -22.37000000 0.11764706 0.16078431 0.23137255
v 37.08067591 -25.66805082 -22.37000000 0.11764706 0.16078431 0.23137255
v 36.62500000 -25.95140831 -22.37000000 0.11764706 0.16078431 0.23137255
v 36.15176726 -26.20435648 -22.37000000 0.11764706 0.16078431 0.23137255
v 35.66300415 -26.42581217 -22.37000000 0.11764706 0.16078431 0.23137255
v 35.16080362 -26.61482706 -22.37000000 0.11764706 0.16078431 0.23137255
v 34.64731617 -26.77059178 -22.37000000 0.11764706 0.16078431 0.23137255
v 34.12474064 -26.89243930 -22.37000000 0.11764706 0.16078431 0.23137255
v 33.59531478 -26.97984786 -22.37000000 0.11764706 0.16078431 0.23137255
v 19.47500000 -28.85000000 0.00000000 0.11764706 0.16078431 0.23137255
v 32.52500000 -28.85000000 0.00000000 0.11764706 0.16078431 0.23137255
v 33.17903129 -28.82858923 0.00000000 0.11764706 0.16078431 0.23137255
v 33.83026192 -28.76444861 0.00000000 0.11764706 0.16078431 0.23137255
v 34.47590322 -28.65785280 0.00000000 0.11764706 0.16078431 0.23137255
v 35.11319045 -28.50925826 0.00000000 0.11764706 0.16078431 0.23137255
v 35.73939465 -28.31930129 0.00000000 0.11764706 0.16078431 0.23137255
v 36.35183432 -28.08879533 0.00000000 0.11764706 0.16078431 0.23137255
v 36.94788690 -27.81872742 0.00000000 0.11764706 0.16078431 0.23137255
v 37.52500000 -27.51025404 0.00000000 0.11764706 0.16078431 0.23137255
v 38.08070233 -27.16469612 0.00000000 0.11764706 0.16078431 0.23137255
v 38.61261429 -26.78353340 0.00000000 0.11764706 0.16078431 0.23137255
v 39.11845815 -26.36839807 0.00000000 0.11764706 0.16078431 0.23137255
v 39.59606781 -25.92106781 0.00000000 0.11764706 0.16078431 0.23137255
v 40.04339807 -25.44345815 0.00000000 0.11764706 0.16078431 0.23137255
v 40.45853340 -24.93761429 0.00000000 0.11764706 0.16078431 0.23137255
v 40.83969612 -24.40570233 0.00000000 0.11764706 0.16078431 0.23137255
v 41.18525404 -23.85000000 0.00000000 0.11764706 0.16078431 0.23137255
v 41.49372742 -23.27288690 0.00000000 0.11764706 0.16078431 0.23137255
v 41.76379533 -22.67683432 0.00000000 0.11764706 0.16078431 0.23137255
v 41.99430129 -22.06439465 0.00000000 0.11764706 0.16078431 0.23137255
v 42.18425826 -21.43819045 0.00000000 0.11764706 0.16078431 0.23137255
v 42.33285280 -20.80090322 0.00000000 0.11764706 0.16078431 0.23137255
v 42.43944861 -20.15526192 0.00000000 0.11764706 0.16078431 0.23137255
v 42.50358923 -19.50403129 0.00000000 0.11764706 0.16078431 0.23137255
v 42.52500000 -18.85000000 0.00000000 0.11764706 0.16078431 0.23137255
v 42.52500000 -16.15000000 0.00000000 0.11764706 0.16078431 0.23137255
v 42.50358923 -15.49596871 0.00000000 0.11764706 0.16078431 0.23137255
v 42.43944861 -14.84473808 0.00000000 0.11764706 0.16078431 0.23137255
v 42.33285280 -14.19909678 0.00000000 0.11764706 0.16078431 0.23137255
v 42.18425826 -13.56180955 0.00000000 0.11764706 0.16078431 0.23137255
v 41.99430129 -12.93560535 0.00000000 0.11764706 0.16078431 0.23137255
v 41.76379533 -12.32316568 0.00000000 0.11764706 0.16078431 0.23137255
v 41.49372742 -11.72711310 0.00000000 0.11764706 0.16078431 0.23137255
v 41.18525404 -11.15000000 0.00000000 0.11764706 0.16078431 0.23137255
v 40.83969612 -10.59429767 0.00000000 0.11764706 0.16078431 0.23137255
v 40.45853340 -10.06238571 0.00000000 0.11764706 0.16078431 0.23137255
v 40.04339807 -9.55654185 0.00000000 0.11764706 0.16078431 0.23137255
v 39.59606781 -9.07893219 0.00000000 0.11764706 0.16078431 0.23137255
v 39.11845815 -8.63160193 0.00000000 0.11764706 0.16078431 0.23137255
v 38.61261429 -8.21646660 0.00000000 0.11764706 0.16078431 0.23137255
v 38.08070233 -7.83530388 0.00000000 0.11764706 0.16078431 0.23137255
v 37.52500000 -7.48974596 0.00000000 0.11764706 0.16078431 0.23137255
v 36.94788690 -7.18127258 0.00000000 0.11764706 0.16078431 0.23137255
v 36.35183432 -6.91120467 0.00000000 0.11764706 0.16078431 0.23137255
v 35.73939465 -6.68069871 0.00000000 0.11764706 0.16078431 0.23137255
v 35.11319045 -6.49074174 0.00000000 0.11764706 0.16078431 0.23137255
v 34.47590322 -6.34214720 0.00000000 0.11764706 0.16078431 0.23137255
v 33.83026192 -6.23555139 0.00000000 0.11764706 0.16078431 0.23137255
v 33.17903129 -6.17141077 0.00000000 0.11764706 0.16078431 0.23137255
v 32.52500000 -6.15000000 0.00000000 0.11764706 0.16078431 0.23137255
v 19.47500000 -6.15000000 0.00000000 0.11764706 0.16078431 0.23137255
v 18.82096871 -6.17141077 0.00000000 0.11764706 0.16078431 0.23137255
v 18.16973808 -6.23555139 0.00000000 0.11764706 0.16078431 0.23137255
v 17.52409678 -6.34214720 0.00000000 0.11764706 0.16078431 0.23137255
v 16.88680955 -6.49074174 0.00000000 0.11764706 0.16078431 0.23137255
v 16.26060535 -6.68069871 0.00000000 0.11764706 0.16078431 0.23137255
v 15.64816568 -6.91120467 0.00000000 0.11764706 0.16078431 0.23137255
v 15.05211310 -7.18127258 0.00000000 0.11764706 0.16078431 0.23137255
v 14.47500000 -7.48974596 0.00000000 0.11764706 0.16078431 0.23137255
v 13.91929767 -7.83530388 0.00000000 0.11764706 0.16078431 0.23137255
v 13.38738571 -8.21646660 0.00000000 0.11764706 0.16078431 0.23137255
v 12.88154185 -8.63160193 0.00000000 0.11764706 0.16078431 0.23137255
v 12.40393219 -9.07893219 0.00000000 0.11764706 0.16078431 0.23137255
v 11.95660193 -9.55654185 0.00000000 0.11764706 0.16078431 0.23137255
v 11.54146660 -10.06238571 0.00000000 0.11764706 0.16078431 0.23137255
v 11.16030388 -10.59429767 0.00000000 0.11764706 0.16078431 0.23137255
v 10.81474596 -11.15000000 0.00000000 0.11764706 0.16078431 0.23137255
v 10.50627258 -11.72711310 0.00000000 0.11764706 0.16078431 0.23137255
v 10.23620467 -12.32316568 0.00000000 0.11764706 0.16078431 0.23137255
v 10.00569871 -12.93560535 0.00000000 0.11764706 0.16078431 0.23137255
v 9.81574174 -13.56180955 0.00000000 0.11764706 0.16078431 0.23137255
v 9.66714720 -14.19909678 0.00000000 0.11764706 0.16078431 0.23137255
v 9.56055139 -14.84473808 0.00000000 0.11764706 0.16078431 0.23137255
v 9.49641077 -15.49596871 0.00000000 0.11764706 0.16078431 0.23137255
v 9.47500000 -16.15000000 0.00000000 0.11764706 0.16078431 0.23137255
v 9.47500000 -18.85000000 0.00000000 0.11764706 0.16078431 0.23137255
v 9.49641077 -19.50403129 0.00000000 0.11764706 0.16078431 0.23137255
v 9.56055139 -20.15526192 0.00000000 0.11764706 0.16078431 0.23137255
v 9.66714720 -20.80090322 0.00000000 0.11764706 0.16078431 0.23137255
v 9.81574174 -21.43819045 0.00000000 0.11764706 0.16078431 0.23137255
v 10.00569871 -22.06439465 0.00000000 0.11764706 0.16078431 0.23137255
v 10.23620467 -22.67683432 0.00000000 0.11764706 0.16078431 0.23137255
v 10.50627258 -23.27288690 0.00000000 0.11764706 0.16078431 0.23137255
v 10.81474596 -23.85000000 0.00000000 0.11764706 0.16078431 0.23137255
v 11.16030388 -24.40570233 0.00000000 0.11764706 0.16078431 0.23137255
v 11.54146660 -24.93761429 0.00000000 0.11764706 0.16078431 0.23137255
v 11.95660193 -25.44345815 0.00000000 0.11764706 0.16078431 0.23137255
v 12.40393219 -25.92106781 0.00000000 0.11764706 0.16078431 0.23137255
v 12.88154185 -26.36839807 0.00000000 0.11764706 0.16078431 0.23137255
v 13.38738571 -26.78353340 0.00000000 0.11764706 0.16078431 0.23137255
v 13.91929767 -27.16469612 0.00000000 0.11764706 0.16078431 0.23137255
v 14.47500000 -27.51025404 0.00000000 0.11764706 0.16078431 0.23137255
v 15.05211310 -27.81872742 0.00000000 0.11764706 0.16078431 0.23137255
v 15.64816568 -28.08879533 0.00000000 0.11764706 0.16078431 0.23137255
v 16.26060535 -28.31930129 0.00000000 0.11764706 0.16078431 0.23137255
v 16.88680955 -28.50925826 0.00000000 0.11764706 0.16078431 0.23137255
v 17.52409678 -28.65785280 0.00000000 0.11764706 0.16078431 0.23137255
v 18.16973808 -28.76444861 0.00000000 0.11764706 0.16078431 0.23137255
v 18.82096871 -28.82858923 0.00000000 0.11764706 0.16078431 0.23137255
v 33.06130566 -27.03244317 0.00000000 0.11764706 0.16078431 0.23137255
v 32.52500000 -27.05000000 0.00000000 0.11764706 0.16078431 0.23137255
v 19.47500000 -27.05000000 0.00000000 0.11764706 0.16078431 0.23137255
v 18.93869434 -27.03244317 0.00000000 0.11764706 0.16078431 0.23137255
v 18.40468522 -26.97984786 0.00000000 0.11764706 0.16078431 0.23137255
v 17.87525936 -26.89243930 0.00000000 0.11764706 0.16078431 0.23137255
v 17.35268383 -26.77059178 0.00000000 0.11764706 0.16078431 0.23137255
v 16.83919638 -26.61482706 0.00000000 0.11764706 0.16078431 0.23137255
v 16.33699585 -26.42581217 0.00000000 0.11764706 0.16078431 0.23137255
v 15.84823274 -26.20435648 0.00000000 0.11764706 0.16078431 0.23137255
v 15.37500000 -25.95140831 0.00000000 0.11764706 0.16078431 0.23137255
v 14.91932409 -25.66805082 0.00000000 0.11764706 0.16078431 0.23137255
v 14.48315628 -25.35549739 0.00000000 0.11764706 0.16078431 0.23137255
v 14.06836432 -25.01508642 0.00000000 0.11764706 0.16078431 0.23137255
v 13.67672439 -24.64827561 0.00000000 0.11764706 0.16078431 0.23137255
v 13.30991358 -24.25663568 0.00000000 0.11764706 0.16078431 0.23137255
v 12.96950261 -23.84184372 0.00000000 0.11764706 0.16078431 0.23137255
v 12.65694918 -23.40567591 0.00000000 0.11764706 0.16078431 0.23137255
v 12.37359169 -22.95000000 0.00000000 0.11764706 0.16078431 0.23137255
v 12.12064352 -22.47676726 0.00000000 0.11764706 0.16078431 0.23137255
v 11.89918783 -21.98800415 0.00000000 0.11764706 0.16078431 0.23137255
v 11.71017294 -21.48580362 0.00000000 0.11764706 0.16078431 0.23137255
v 11.55440822 -20.97231617 0.00000000 0.11764706 0.16078431 0.23137255
v 11.43256070 -20.44974064 0.00000000 0.11764706 0.16078431 0.23137255
v 11.34515214 -19.92031478 0.00000000 0.11764706 0.16078431 0.23137255
v 11.29255683 -19.38630566 0.00000000 0.11764706 0.16078431 0.23137255
v 11.27500000 -18.85000000 0.00000000 0.11764706 0.16078431 0.23137255
v 11.27500000 -16.15000000 0.00000000 0.11764706 0.16078431 0.23137255
v 11.29255683 -15.61369434 0.00000000 0.11764706 0.16078431 0.23137255
v 11.34515214 -15.07968522 0.00000000 0.11764706 0.16078431 0.23137255
v 11.43256070 -14.55025936 0.00000000 0.11764706 0.16078431 0.23137255
v 11.55440822 -14.02768383 0.00000000 0.11764706 0.16078431 0.23137255
v 11.71017294 -13.51419638 0.00000000 0.11764706 0.16078431 0.23137255
v 11.89918783 -13.01199585 0.00000000 0.11764706 0.16078431 0.23137255
v 12.12064352 -12.52323274 0.00000000 0.11764706 0.16078431 0.23137255
v 12.37359169 -12.05000000 0.00000000 0.11764706 0.16078431 0.23137255
v 12.65694918 -11.59432409 0.00000000 0.11764706 0.16078431 0.23137255
v 12.96950261 -11.15815628 0.00000000 0.11764706 0.16078431 0.23137255
v 13.30991358 -10.74336432 0.00000000 0.11764706 0.16078431 0.23137255
v 13.67672439 -10.35172439 0.00000000 0.11764706 0.16078431 0.23137255
v 14.06836432 -9.98491358 0.00000000 0.11764706 0.16078431 0.23137255
v 14.48315628 -9.64450261 0.00000000 0.11764706 0.16078431 0.23137255
v 14.91932409 -9.33194918 0.00000000 0.11764706 0.16078431 0.23137255
v 15.37500000 -9.04859169 0.00000000 0.11764706 0.16078431 0.23137255
v 15.84823274 -8.79564352 0.00000000 0.11764706 0.16078431 0.23137255
v 16.33699585 -8.57418783 0.00000000 0.11764706 0.16078431 0.23137255
v 16.83919638 -8.38517294 0.00000000 0.11764706 0.16078431 0.23137255
v 17.35268383 -8.22940822 0.00000000 0.11764706 0.16078431 0.23137255
v 17.87525936 -8.10756070 0.00000000 0.11764706 0.16078431 0.23137255
v 18.40468522 -8.02015214 0.00000000 0.11764706 0.16078431 0.23137255
v 18.93869434 -7.96755683 0.00000000 0.11764706 0.16078431 0.23137255
v 19.47500000 -7.95000000 0.00000000 0.11764706 0.16078431 0.23137255
v 32.52500000 -7.95000000 0.00000000 0.11764706 0.16078431 0.23137255
v 33.06130566 -7.96755683 0.00000000 0.11764706 0.16078431 0.23137255
v 33.59531478 -8.02015214 0.00000000 0.11764706 0.16078431 0.23137255
v 34.12474064 -8.10756070 0.00000000 0.11764706 0.16078431 0.23137255
v 34.64731617 -8.22940822 0.00000000 0.11764706 0.16078431 0.23137255
v 35.16080362 -8.38517294 0.00000000 0.11764706 0.16078431 0.23137255
v 35.66300415 -8.57418783 0.00000000 0.11764706 0.16078431 0.23137255
v 36.15176726 -8.79564352 0.00000000 0.11764706 0.16078431 0.23137255
v 36.62500000 -9.04859169 0.00000000 0.11764706 0.16078431 0.23137255
v 37.08067591 -9.33194918 0.00000000 0.11764706 0.16078431 0.23137255
v 37.51684372 -9.64450261 0.00000000 0.11764706 0.16078431 0.23137255
v 37.93163568 -9.98491358 0.00000000 0.11764706 0.16078431 0.23137255
v 38.32327561 -10.35172439 0.00000000 0.11764706 0.16078431 0.23137255
v 38.69008642 -10.74336432 0.00000000 0.11764706 0.16078431 0.23137255
v 39.03049739 -11.15815628 0.00000000 0.11764706 0.16078431 0.23137255
v 39.34305082 -11.59432409 0.00000000 0.11764706 0.16078431 0.23137255
v 39.62640831 -12.05000000 0.00000000 0.11764706 0.16078431 0.23137255
v 39.87935648 -12.52323274 0.00000000 0.11764706 0.16078431 0.23137255
v 40.10081217 -13.01199585 0.00000000 0.11764706 0.16078431 0.23137255
v 40.28982706 -13.51419638 0.00000000 0.11764706 0.16078431 0.23137255
v 40.44559178 -14.02768383 0.00000000 0.11764706 0.16078431 0.23137255
v 40.56743930 -14.55025936 0.00000000 0.11764706 0.16078431 0.23137255
v 40.65484786 -15.07968522 0.00000000 0.11764706 0.16078431 0.23137255
v 40.70744317 -15.61369434 0.00000000 0.11764706 0.16078431 0.23137255
v 40.72500000 -16.15000000 0.00000000 0.11764706 0.16078431 0.23137255
v 40.72500000 -18.85000000 0.00000000 0.11764706 0.16078431 0.23137255
v 40.70744317 -19.38630566 0.00000000 0.11764706 0.16078431 0.23137255
v 40.65484786 -19.92031478 0.00000000 0.11764706 0.16078431 0.23137255
v 40.56743930 -20.44974064 0.00000000 0.11764706 0.16078431 0.23137255
v 40.44559178 -20.97231617 0.00000000 0.11764706 0.16078431 0.23137255
v 40.28982706 -21.48580362 0.00000000 0.11764706 0.16078431 0.23137255
v 40.10081217 -21.98800415 0.00000000 0.11764706 0.16078431 0.23137255
v 39.87935648 -22.47676726 0.00000000 0.11764706 0.16078431 0.23137255
v 39.62640831 -22.95000000 0.00000000 0.11764706 0.16078431 0.23137255
v 39.34305082 -23.40567591 0.00000000 0.11764706 0.16078431 0.23137255
v 39.03049739 -23.84184372 0.00000000 0.11764706 0.16078431 0.23137255
v 38.69008642 -24.25663568 0.00000000 0.11764706 0.16078431 0.23137255
v 38.32327561 -24.64827561 0.00000000 0.11764706 0.16078431 0.23137255
v 37.93163568 -25.01508642 0.00000000 0.11764706 0.16078431 0.23137255
v 37.51684372 -25.35549739 0.00000000 0.11764706 0.16078431 0.23137255
v 37.08067591 -25.66805082 0.00000000 0.11764706 0.16078431 0.23137255
v 36.62500000 -25.95140831 0.00000000 0.11764706 0.16078431 0.23137255
v 36.15176726 -26.20435648 0.00000000 0.11764706 0.16078431 0.23137255
v 35.66300415 -26.42581217 0.00000000 0.11764706 0.16078431 0.23137255
v 35.16080362 -26.61482706 0.00000000 0.11764706 0.16078431 0.23137255
v 34.64731617 -26.77059178 0.00000000 0.11764706 0.16078431 0.23137255
v 34.12474064 -26.89243930 0.00000000 0.11764706 0.16078431 0.23137255
v 33.59531478 -26.97984786 0.00000000 0.11764706 0.16078431 0.23137255
v 40.10000000 -17.50000000 -21.00000000 0.20000000 0.25490196 0.33333333
v 40.10000000 -17.50000000 -1.00000000 0.20000000 0.25490196 0.33333333
v 40.10000000 -13.50000000 -21.00000000 0.20000000 0.25490196 0.33333333
v 40.10000000 -13.50000000 -1.00000000 0.20000000 0.25490196 0.33333333
v 42.90000000 -17.50000000 -21.00000000 0.20000000 0.25490196 0.33333333
v 42.90000000 -17.50000000 -1.00000000 0.20000000 0.25490196 0.33333333
v 42.90000000 -13.50000000 -21.00000000 0.20000000 0.25490196 0.33333333
v 42.90000000 -13.50000000 -1.00000000 0.20000000 0.25490196 0.33333333
v 17.25000000 -29.10000000 -19.00000000 0.20000000 0.25490196 0.33333333
v 17.25000000 -29.10000000 -3.00000000 0.20000000 0.25490196 0.33333333
v 17.25000000 -26.60000000 -19.00000000 0.20000000 0.25490196 0.33333333
v 17.25000000 -26.60000000 -3.00000000 0.20000000 0.25490196 0.33333333
v 21.75000000 -29.10000000 -19.00000000 0.20000000 0.25490196 0.33333333
v 21.75000000 -29.10000000 -3.00000000 0.20000000 0.25490196 0.33333333
v 21.75000000 -26.60000000 -19.00000000 0.20000000 0.25490196 0.33333333
v 21.75000000 -26.60000000 -3.00000000 0.20000000 0.25490196 0.33333333
v 25.00000000 -6.15000000 -15.39000000 0.93725490 0.26666667 0.26666667
v 25.00000000 -6.15000000 -11.89000000 0.93725490 0.26666667 0.26666667
v 25.00000000 -3.45000000 -15.39000000 0.93725490 0.26666667 0.26666667
v 25.00000000 -3.45000000 -11.89000000 0.93725490 0.26666667 0.26666667
v 27.00000000 -6.15000000 -15.39000000 0.93725490 0.26666667 0.26666667
v 27.00000000 -6.15000000 -11.89000000 0.93725490 0.26666667 0.26666667
v 27.00000000 -3.45000000 -15.39000000 0.93725490 0.26666667 0.26666667
v 27.00000000 -3.45000000 -11.89000000 0.93725490 0.26666667 0.26666667
v 19.10000000 -6.15000000 -20.00000000 0.11764706 0.16078431 0.23137255
v 19.10000000 -6.15000000 -6.00000000 0.11764706 0.16078431 0.23137255
v 19.10000000 -3.95000000 -20.00000000 0.11764706 0.16078431 0.23137255
v 19.10000000 -3.95000000 -6.00000000 0.11764706 0.16078431 0.23137255
v 20.90000000 -6.15000000 -20.00000000 0.11764706 0.16078431 0.23137255
v 20.90000000 -6.15000000 -6.00000000 0.11764706 0.16078431 0.23137255
v 20.90000000 -3.95000000 -20.00000000 0.11764706 0.16078431 0.23137255
v 20.90000000 -3.95000000 -6.00000000 0.11764706 0.16078431 0.23137255
v 31.10000000 -6.15000000 -20.00000000 0.11764706 0.16078431 0.23137255
v 31.10000000 -6.15000000 -6.00000000 0.11764706 0.16078431 0.23137255
v 31.10000000 -3.95000000 -20.00000000 0.11764706 0.16078431 0.23137255
v 31.10000000 -3.95000000 -6.00000000 0.11764706 0.16078431 0.23137255
v 32.90000000 -6.15000000 -20.00000000 0.11764706 0.16078431 0.23137255
v 32.90000000 -6.15000000 -6.00000000 0.11764706 0.16078431 0.23137255
v 32.90000000 -3.95000000 -20.00000000 0.11764706 0.16078431 0.23137255
v 32.90000000 -3.95000000 -6.00000000 0.11764706 0.16078431 0.23137255
v 16.85000000 -17.90000000 -17.00000000 0.91764706 0.70196078 0.03137255
v 16.85000000 -17.90000000 -2.00000000 0.91764706 0.70196078 0.03137255
v 16.85000000 -17.10000000 -17.00000000 0.91764706 0.70196078 0.03137255
v 16.85000000 -17.10000000 -2.00000000 0.91764706 0.70196078 0.03137255
v 23.15000000 -17.90000000 -17.00000000 0.91764706 0.70196078 0.03137255
v 23.15000000 -17.90000000 -2.00000000 0.91764706 0.70196078 0.03137255
v 23.15000000 -17.10000000 -17.00000000 0.91764706 0.70196078 0.03137255
v 23.15000000 -17.10000000 -2.00000000 0.91764706 0.70196078 0.03137255
v 28.85000000 -17.90000000 -17.00000000 0.91764706 0.70196078 0.03137255
v 28.85000000 -17.90000000 -2.00000000 0.91764706 0.70196078 0.03137255
v 28.85000000 -17.10000000 -17.00000000 0.91764706 0.70196078 0.03137255
v 28.85000000 -17.10000000 -2.00000000 0.91764706 0.70196078 0.03137255
v 35.15000000 -17.90000000 -17.00000000 0.91764706 0.70196078 0.03137255
v 35.15000000 -17.90000000 -2.00000000 0.91764706 0.70196078 0.03137255
v 35.15000000 -17.10000000 -17.00000000 0.91764706 0.70196078 0.03137255
v 35.15000000 -17.10000000 -2.00000000 0.91764706 0.70196078 0.03137255
v 46.52500153 -50.07500076 -13.00000000 0.79607843 0.83529412 0.88235294
v 46.52500153 -37.19495392 3.83713150 0.79607843 0.83529412 0.88235294
v 46.52500153 -37.34834671 4.40959597 0.79607843 0.83529412 0.88235294
v 46.52500153 -37.40000153 5.00000000 0.79607843 0.83529412 0.88235294
v 46.52500153 -37.34834671 5.59040403 0.79607843 0.83529412 0.88235294
v 46.52500153 -37.19495392 6.16286850 0.79607843 0.83529412 0.88235294
v 46.52500153 -36.18547821 2.39544892 0.79607843 0.83529412 0.88235294
v 46.52500153 -35.70000076 2.05551362 0.79607843 0.83529412 0.88235294
v 46.52500153 -36.94448471 3.29999995 0.79607843 0.83529412 0.88235294
v 46.52500153 -36.60454941 2.81452203 0.79607843 0.83529412 0.88235294
v 46.52500153 -35.16286850 1.80504513 0.79607843 0.83529412 0.88235294
v 46.52500153 -34.59040451 1.65165365 0.79607843 0.83529412 0.88235294
v 46.52500153 -34.00000000 1.60000002 0.79607843 0.83529412 0.88235294
v 46.52500153 -36.94448471 6.69999981 0.79607843 0.83529412 0.88235294
v 46.52500153 -36.60454941 7.18547773 0.79607843 0.83529412 0.88235294
v 46.52500153 -36.18547821 7.60455132 0.79607843 0.83529412 0.88235294
v 46.52500153 -35.70000076 7.94448614 0.79607843 0.83529412 0.88235294
v 46.52500153 -33.40959549 1.65165365 0.79607843 0.83529412 0.88235294
v 46.52500153 -32.83713150 1.80504513 0.79607843 0.83529412 0.88235294
v 46.52500153 -32.29999924 2.05551362 0.79607843 0.83529412 0.88235294
v 46.52500153 -31.81452179 2.39544892 0.79607843 0.83529412 0.88235294
v 46.52500153 -31.39544868 2.81452203 0.79607843 0.83529412 0.88235294
v 46.52500153 -31.05551338 3.29999995 0.79607843 0.83529412 0.88235294
v 46.52500153 -30.80504417 3.83713150 0.79607843 0.83529412 0.88235294
v 46.52500153 -30.65165329 4.40959597 0.79607843 0.83529412 0.88235294
v 46.52500153 -32.29999924 7.94448614 0.79607843 0.83529412 0.88235294
v 46.52500153 -30.60000038 5.00000000 0.79607843 0.83529412 0.88235294
v 46.52500153 -30.65165329 5.59040403 0.79607843 0.83529412 0.88235294
v 46.52500153 -30.80504417 6.16286850 0.79607843 0.83529412 0.88235294
v 46.52500153 -31.81452179 7.60455132 0.79607843 0.83529412 0.88235294
v 46.52500153 -31.39544868 7.18547773 0.79607843 0.83529412 0.88235294
v 46.52500153 -31.05551338 6.69999981 0.79607843 0.83529412 0.88235294
v 46.52500153 -35.16286850 8.19495487 0.79607843 0.83529412 0.88235294
v 46.52500153 -34.59040451 8.34834671 0.79607843 0.83529412 0.88235294
v 46.52500153 -34.00000000 8.39999962 0.79607843 0.83529412 0.88235294
v 46.52500153 -33.40959549 8.34834671 0.79607843 0.83529412 0.88235294
v 46.52500153 -32.83713150 8.19495487 0.79607843 0.83529412 0.88235294
v 46.52500153 -50.07500076 43.00000000 0.79607843 0.83529412 0.88235294
v 46.52500153 1.92499995 -13.00000000 0.79607843 0.83529412 0.88235294
v 46.52500153 -16.94448662 18.29999924 0.79607843 0.83529412 0.88235294
v 46.52500153 -16.18547821 17.39544868 0.79607843 0.83529412 0.88235294
v 46.52500153 -16.60455132 17.81452179 0.79607843 0.83529412 0.88235294
v 46.52500153 -14.59040356 16.65165329 0.79607843 0.83529412 0.88235294
v 46.52500153 -15.69999981 17.05551338 0.79607843 0.83529412 0.88235294
v 46.52500153 -15.16286850 16.80504417 0.79607843 0.83529412 0.88235294
v 46.52500153 -17.19495583 18.83713150 0.79607843 0.83529412 0.88235294
v 46.52500153 -17.34834671 19.40959549 0.79607843 0.83529412 0.88235294
v 46.52500153 -17.39999962 20.00000000 0.79607843 0.83529412 0.88235294
v 46.52500153 -17.34834671 20.59040451 0.79607843 0.83529412 0.88235294
v 46.52500153 -17.19495583 21.16286850 0.79607843 0.83529412 0.88235294
v 46.52500153 -16.94448662 21.70000076 0.79607843 0.83529412 0.88235294
v 46.52500153 -14.00000000 16.60000038 0.79607843 0.83529412 0.88235294
v 46.52500153 -13.40959644 16.65165329 0.79607843 0.83529412 0.88235294
v 46.52500153 -12.83713150 16.80504417 0.79607843 0.83529412 0.88235294
v 46.52500153 -12.30000019 17.05551338 0.79607843 0.83529412 0.88235294
v 46.52500153 -11.81452179 17.39544868 0.79607843 0.83529412 0.88235294
v 46.52500153 -11.39544868 17.81452179 0.79607843 0.83529412 0.88235294
v 46.52500153 -16.60455132 22.18547821 0.79607843 0.83529412 0.88235294
v 46.52500153 -16.18547821 22.60455132 0.79607843 0.83529412 0.88235294
v 46.52500153 -15.69999981 22.94448662 0.79607843 0.83529412 0.88235294
v 46.52500153 -15.16286850 23.19495583 0.79607843 0.83529412 0.88235294
v 46.52500153 -14.59040356 23.34834671 0.79607843 0.83529412 0.88235294
v 46.52500153 -14.00000000 23.39999962 0.79607843 0.83529412 0.88235294
v 46.52500153 -13.40959644 23.34834671 0.79607843 0.83529412 0.88235294
v 46.52500153 -12.83713150 23.19495583 0.79607843 0.83529412 0.88235294
v 46.52500153 -12.30000019 22.94448662 0.79607843 0.83529412 0.88235294
v 46.52500153 -11.81452179 22.60455132 0.79607843 0.83529412 0.88235294
v 46.52500153 -11.39544868 22.18547821 0.79607843 0.83529412 0.88235294
v 46.52500153 -11.05551338 18.29999924 0.79607843 0.83529412 0.88235294
v 46.52500153 -10.80504513 18.83713150 0.79607843 0.83529412 0.88235294
v 46.52500153 -10.65165329 19.40959549 0.79607843 0.83529412 0.88235294
v 46.52500153 -10.60000038 20.00000000 0.79607843 0.83529412 0.88235294
v 46.52500153 -10.65165329 20.59040451 0.79607843 0.83529412 0.88235294
v 46.52500153 -10.80504513 21.16286850 0.79607843 0.83529412 0.88235294
v 46.52500153 -11.05551338 21.70000076 0.79607843 0.83529412 0.88235294
v 46.52500153 1.92499995 43.00000000 0.79607843 0.83529412 0.88235294
v 49.02500153 -50.07500076 -13.00000000 0.79607843 0.83529412 0.88235294
v 49.02500153 -37.19495392 3.83713150 0.79607843 0.83529412 0.88235294
v 49.02500153 -37.34834671 4.40959597 0.79607843 0.83529412 0.88235294
v 49.02500153 -37.40000153 5.00000000 0.79607843 0.83529412 0.88235294
v 49.02500153 -37.34834671 5.59040403 0.79607843 0.83529412 0.88235294
v 49.02500153 -37.19495392 6.16286850 0.79607843 0.83529412 0.88235294
v 49.02500153 -36.18547821 2.39544892 0.79607843 0.83529412 0.88235294
v 49.02500153 -35.70000076 2.05551362 0.79607843 0.83529412 0.88235294
v 49.02500153 -36.94448471 3.29999995 0.79607843 0.83529412 0.88235294
v 49.02500153 -36.60454941 2.81452203 0.79607843 0.83529412 0.88235294
v 49.02500153 -35.16286850 1.80504513 0.79607843 0.83529412 0.88235294
v 49.02500153 -34.59040451 1.65165365 0.79607843 0.83529412 0.88235294
v 49.02500153 -34.00000000 1.60000002 0.79607843 0.83529412 0.88235294
v 49.02500153 -36.94448471 6.69999981 0.79607843 0.83529412 0.88235294
v 49.02500153 -36.60454941 7.18547773 0.79607843 0.83529412 0.88235294
v 49.02500153 -36.18547821 7.60455132 0.79607843 0.83529412 0.88235294
v 49.02500153 -35.70000076 7.94448614 0.79607843 0.83529412 0.88235294
v 49.02500153 -33.40959549 1.65165365 0.79607843 0.83529412 0.88235294
v 49.02500153 -32.83713150 1.80504513 0.79607843 0.83529412 0.88235294
v 49.02500153 -32.29999924 2.05551362 0.79607843 0.83529412 0.88235294
v 49.02500153 -31.81452179 2.39544892 0.79607843 0.83529412 0.88235294
v 49.02500153 -31.39544868 2.81452203 0.79607843 0.83529412 0.88235294
v 49.02500153 -31.05551338 3.29999995 0.79607843 0.83529412 0.88235294
v 49.02500153 -30.80504417 3.83713150 0.79607843 0.83529412 0.88235294
v 49.02500153 -30.65165329 4.40959597 0.79607843 0.83529412 0.88235294
v 49.02500153 -32.29999924 7.94448614 0.79607843 0.83529412 0.88235294
v 49.02500153 -30.60000038 5.00000000 0.79607843 0.83529412 0.88235294
v 49.02500153 -30.65165329 5.59040403 0.79607843 0.83529412 0.88235294
v 49.02500153 -30.80504417 6.16286850 0.79607843 0.83529412 0.88235294
v 49.02500153 -31.81452179 7.60455132 0.79607843 0.83529412 0.88235294
v 49.02500153 -31.39544868 7.18547773 0.79607843 0.83529412 0.88235294
v 49.02500153 -31.05551338 6.69999981 0.79607843 0.83529412 0.88235294
v 49.02500153 -35.16286850 8.19495487 0.79607843 0.83529412 0.88235294
v 49.02500153 -34.59040451 8.34834671 0.79607843 0.83529412 0.88235294
v 49.02500153 -34.00000000 8.39999962 0.79607843 0.83529412 0.88235294
v 49.02500153 -33.40959549 8.34834671 0.79607843 0.83529412 0.88235294
v 49.02500153 -32.83713150 8.19495487 0.79607843 0.83529412 0.88235294
v 49.02500153 -50.07500076 43.00000000 0.79607843 0.83529412 0.88235294
v 49.02500153 1.92499995 -13.00000000 0.79607843 0.83529412 0.88235294
v 49.02500153 -16.94448662 18.29999924 0.79607843 0.83529412 0.88235294
v 49.02500153 -16.18547821 17.39544868 0.79607843 0.83529412 0.88235294
v 49.02500153 -16.60455132 17.81452179 0.79607843 0.83529412 0.88235294
v 49.02500153 -14.59040356 16.65165329 0.79607843 0.83529412 0.88235294
v 49.02500153 -15.69999981 17.05551338 0.79607843 0.83529412 0.88235294
v 49.02500153 -15.16286850 16.80504417 0.79607843 0.83529412 0.88235294
v 49.02500153 -17.19495583 18.83713150 0.79607843 0.83529412 0.88235294
v 49.02500153 -17.34834671 19.40959549 0.79607843 0.83529412 0.88235294
v 49.02500153 -17.39999962 20.00000000 0.79607843 0.83529412 0.88235294
v 49.02500153 -17.34834671 20.59040451 0.79607843 0.83529412 0.88235294
v 49.02500153 -17.19495583 21.16286850 0.79607843 0.83529412 0.88235294
v 49.02500153 -16.94448662 21.70000076 0.79607843 0.83529412 0.88235294
v 49.02500153 -14.00000000 16.60000038 0.79607843 0.83529412 0.88235294
v 49.02500153 -13.40959644 16.65165329 0.79607843 0.83529412 0.88235294
v 49.02500153 -12.83713150 16.80504417 0.79607843 0.83529412 0.88235294
v 49.02500153 -12.30000019 17.05551338 0.79607843 0.83529412 0.88235294
v 49.02500153 -11.81452179 17.39544868 0.79607843 0.83529412 0.88235294
v 49.02500153 -11.39544868 17.81452179 0.79607843 0.83529412 0.88235294
v 49.02500153 -16.60455132 22.18547821 0.79607843 0.83529412 0.88235294
v 49.02500153 -16.18547821 22.60455132 0.79607843 0.83529412 0.88235294
v 49.02500153 -15.69999981 22.94448662 0.79607843 0.83529412 0.88235294
v 49.02500153 -15.16286850 23.19495583 0.79607843 0.83529412 0.88235294
v 49.02500153 -14.59040356 23.34834671 0.79607843 0.83529412 0.88235294
v 49.02500153 -14.00000000 23.39999962 0.79607843 0.83529412 0.88235294
v 49.02500153 -13.40959644 23.34834671 0.79607843 0.83529412 0.88235294
v 49.02500153 -12.83713150 23.19495583 0.79607843 0.83529412 0.88235294
v 49.02500153 -12.30000019 22.94448662 0.79607843 0.83529412 0.88235294
v 49.02500153 -11.81452179 22.60455132 0.79607843 0.83529412 0.88235294
v 49.02500153 -11.39544868 22.18547821 0.79607843 0.83529412 0.88235294
v 49.02500153 -11.05551338 18.29999924 0.79607843 0.83529412 0.88235294
v 49.02500153 -10.80504513 18.83713150 0.79607843 0.83529412 0.88235294
v 49.02500153 -10.65165329 19.40959549 0.79607843 0.83529412 0.88235294
v 49.02500153 -10.60000038 20.00000000 0.79607843 0.83529412 0.88235294
v 49.02500153 -10.65165329 20.59040451 0.79607843 0.83529412 0.88235294
v 49.02500153 -10.80504513 21.16286850 0.79607843 0.83529412 0.88235294
v 49.02500153 -11.05551338 21.70000076 0.79607843 0.83529412 0.88235294
v 49.02500153 1.92499995 43.00000000 0.79607843 0.83529412 0.88235294
v 49.02500000 -43.07500000 26.50000000 0.88627451 0.90980392 0.94117647
v 49.02500000 -43.07500000 29.50000000 0.88627451 0.90980392 0.94117647
v 49.02500000 -5.07500000 26.50000000 0.88627451 0.90980392 0.94117647
v 49.02500000 -5.07500000 29.50000000 0.88627451 0.90980392 0.94117647
v 50.22500000 -43.07500000 26.50000000 0.88627451 0.90980392 0.94117647
v 50.22500000 -43.07500000 29.50000000 0.88627451 0.90980392 0.94117647
v 50.22500000 -5.07500000 26.50000000 0.88627451 0.90980392 0.94117647
v 50.22500000 -5.07500000 29.50000000 0.88627451 0.90980392 0.94117647
v 49.02500000 -43.07500000 10.50000000 0.88627451 0.90980392 0.94117647
v 49.02500000 -43.07500000 13.50000000 0.88627451 0.90980392 0.94117647
v 49.02500000 -5.07500000 10.50000000 0.88627451 0.90980392 0.94117647
v 49.02500000 -5.07500000 13.50000000 0.88627451 0.90980392 0.94117647
v 50.22500000 -43.07500000 10.50000000 0.88627451 0.90980392 0.94117647
v 50.22500000 -43.07500000 13.50000000 0.88627451 0.90980392 0.94117647
v 50.22500000 -5.07500000 10.50000000 0.88627451 0.90980392 0.94117647
v 50.22500000 -5.07500000 13.50000000 0.88627451 0.90980392 0.94117647
v 43.52500000 -9.00000000 35.50000000 0.11764706 0.16078431 0.23137255
v 43.52500000 -9.00000000 40.50000000 0.11764706 0.16078431 0.23137255
v 43.52500000 -3.00000000 35.50000000 0.11764706 0.16078431 0.23137255
v 43.52500000 -3.00000000 40.50000000 0.11764706 0.16078431 0.23137255
v 46.52500000 -9.00000000 35.50000000 0.11764706 0.16078431 0.23137255
v 46.52500000 -9.00000000 40.50000000 0.11764706 0.16078431 0.23137255
v 46.52500000 -3.00000000 35.50000000 0.11764706 0.16078431 0.23137255
v 46.52500000 -3.00000000 40.50000000 0.11764706 0.16078431 0.23137255
v 43.52500000 -45.00000000 35.50000000 0.11764706 0.16078431 0.23137255
v 43.52500000 -45.00000000 40.50000000 0.11764706 0.16078431 0.23137255
v 43.52500000 -39.00000000 35.50000000 0.11764706 0.16078431 0.23137255
v 43.52500000 -39.00000000 40.50000000 0.11764706 0.16078431 0.23137255
v 46.52500000 -45.00000000 35.50000000 0.11764706 0.16078431 0.23137255
v 46.52500000 -45.00000000 40.50000000 0.11764706 0.16078431 0.23137255
v 46.52500000 -39.00000000 35.50000000 0.11764706 0.16078431 0.23137255
v 46.52500000 -39.00000000 40.50000000 0.11764706 0.16078431 0.23137255
v 52.00000000 -48.75000000 18.00000000 0.98039216 0.80000000 0.08235294
v 52.00000000 -48.75000000 32.00000000 0.98039216 0.80000000 0.08235294
v 52.00000000 -48.15000000 18.00000000 0.98039216 0.80000000 0.08235294
v 52.00000000 -48.15000000 32.00000000 0.98039216 0.80000000 0.08235294
v 84.00000000 -48.75000000 18.00000000 0.98039216 0.80000000 0.08235294
v 84.00000000 -48.75000000 32.00000000 0.98039216 0.80000000 0.08235294
v 84.00000000 -48.15000000 18.00000000 0.98039216 0.80000000 0.08235294
v 84.00000000 -48.15000000 32.00000000 0.98039216 0.80000000 0.08235294
v 53.10000000 -51.65000000 2.00000000 0.20000000 0.25490196 0.33333333
v 53.10000000 -51.65000000 16.00000000 0.20000000 0.25490196 0.33333333
v 53.10000000 -48.15000000 2.00000000 0.20000000 0.25490196 0.33333333
v 53.10000000 -48.15000000 16.00000000 0.20000000 0.25490196 0.33333333
v 54.90000000 -51.65000000 2.00000000 0.20000000 0.25490196 0.33333333
v 54.90000000 -51.65000000 16.00000000 0.20000000 0.25490196 0.33333333
v 54.90000000 -48.15000000 2.00000000 0.20000000 0.25490196 0.33333333
v 54.90000000 -48.15000000 16.00000000 0.20000000 0.25490196 0.33333333
v 64.10000000 -51.65000000 2.00000000 0.20000000 0.25490196 0.33333333
v 64.10000000 -51.65000000 16.00000000 0.20000000 0.25490196 0.33333333
v 64.10000000 -48.15000000 2.00000000 0.20000000 0.25490196 0.33333333
v 64.10000000 -48.15000000 16.00000000 0.20000000 0.25490196 0.33333333
v 65.90000000 -51.65000000 2.00000000 0.20000000 0.25490196 0.33333333
v 65.90000000 -51.65000000 16.00000000 0.20000000 0.25490196 0.33333333
v 65.90000000 -48.15000000 2.00000000 0.20000000 0.25490196 0.33333333
v 65.90000000 -48.15000000 16.00000000 0.20000000 0.25490196 0.33333333
v 75.10000000 -51.65000000 2.00000000 0.20000000 0.25490196 0.33333333
v 75.10000000 -51.65000000 16.00000000 0.20000000 0.25490196 0.33333333
v 75.10000000 -48.15000000 2.00000000 0.20000000 0.25490196 0.33333333
v 75.10000000 -48.15000000 16.00000000 0.20000000 0.25490196 0.33333333
v 76.90000000 -51.65000000 2.00000000 0.20000000 0.25490196 0.33333333
v 76.90000000 -51.65000000 16.00000000 0.20000000 0.25490196 0.33333333
v 76.90000000 -48.15000000 2.00000000 0.20000000 0.25490196 0.33333333
v 76.90000000 -48.15000000 16.00000000 0.20000000 0.25490196 0.33333333
v 51.00000000 -51.65000000 3.10000000 0.20000000 0.25490196 0.33333333
v 51.00000000 -51.65000000 4.90000000 0.20000000 0.25490196 0.33333333
v 51.00000000 -48.15000000 3.10000000 0.20000000 0.25490196 0.33333333
v 51.00000000 -48.15000000 4.90000000 0.20000000 0.25490196 0.33333333
v 79.00000000 -51.65000000 3.10000000 0.20000000 0.25490196 0.33333333
v 79.00000000 -51.65000000 4.90000000 0.20000000 0.25490196 0.33333333
v 79.00000000 -48.15000000 3.10000000 0.20000000 0.25490196 0.33333333
v 79.00000000 -48.15000000 4.90000000 0.20000000 0.25490196 0.33333333
v 51.00000000 -51.65000000 10.10000000 0.20000000 0.25490196 0.33333333
v 51.00000000 -51.65000000 11.90000000 0.20000000 0.25490196 0.33333333
v 51.00000000 -48.15000000 10.10000000 0.20000000 0.25490196 0.33333333
v 51.00000000 -48.15000000 11.90000000 0.20000000 0.25490196 0.33333333
v 79.00000000 -51.65000000 10.10000000 0.20000000 0.25490196 0.33333333
v 79.00000000 -51.65000000 11.90000000 0.20000000 0.25490196 0.33333333
v 79.00000000 -48.15000000 10.10000000 0.20000000 0.25490196 0.33333333
v 79.00000000 -48.15000000 11.90000000 0.20000000 0.25490196 0.33333333
v 51.00000000 -51.65000000 15.10000000 0.20000000 0.25490196 0.33333333
v 51.00000000 -51.65000000 16.90000000 0.20000000 0.25490196 0.33333333
v 51.00000000 -48.15000000 15.10000000 0.20000000 0.25490196 0.33333333
v 51.00000000 -48.15000000 16.90000000 0.20000000 0.25490196 0.33333333
v 79.00000000 -51.65000000 15.10000000 0.20000000 0.25490196 0.33333333
v 79.00000000 -51.65000000 16.90000000 0.20000000 0.25490196 0.33333333
v 79.00000000 -48.15000000 15.10000000 0.20000000 0.25490196 0.33333333
v 79.00000000 -48.15000000 16.90000000 0.20000000 0.25490196 0.33333333
v 84.00000000 -50.15000000 16.00000000 0.05882353 0.09019608 0.16470588
v 84.00000000 -50.15000000 28.00000000 0.05882353 0.09019608 0.16470588
v 84.00000000 -43.15000000 16.00000000 0.05882353 0.09019608 0.16470588
v 84.00000000 -43.15000000 28.00000000 0.05882353 0.09019608 0.16470588
v 100.00000000 -50.15000000 16.00000000 0.05882353 0.09019608 0.16470588
v 100.00000000 -50.15000000 28.00000000 0.05882353 0.09019608 0.16470588
v 100.00000000 -43.15000000 16.00000000 0.05882353 0.09019608 0.16470588
v 100.00000000 -43.15000000 28.00000000 0.05882353 0.09019608 0.16470588
v 111.75000000 -48.15000000 0.00000000 0.11764706 0.16078431 0.23137255
v 111.75000000 -48.15000000 34.00000000 0.11764706 0.16078431 0.23137255
v 111.75000000 0.00000000 0.00000000 0.11764706 0.16078431 0.23137255
v 111.75000000 0.00000000 34.00000000 0.11764706 0.16078431 0.23137255
v 123.75000000 -48.15000000 0.00000000 0.11764706 0.16078431 0.23137255
v 123.75000000 -48.15000000 34.00000000 0.11764706 0.16078431 0.23137255
v 123.75000000 0.00000000 0.00000000 0.11764706 0.16078431 0.23137255
v 123.75000000 0.00000000 34.00000000 0.11764706 0.16078431 0.23137255
f 1 2 4
f 2 3 4
f 1 8 2
f 2 10 3
f 3 10 5
f 1 4 6
f 3 5 4
f 1 6 15
f 1 15 17
f 6 7 15
f 4 5 11
f 4 11 6
f 6 14 7
f 7 14 16
f 1 37 8
f 1 21 37
f 2 8 9
f 2 9 10
f 8 11 9
f 9 12 10
f 5 10 12
f 5 12 11
f 6 11 13
f 6 13 14
f 9 11 12
f 8 13 11
f 8 30 13
f 8 32 30
f 13 31 14
f 1 17 19
f 7 16 15
f 1 19 21
f 17 18 19
f 15 16 30
f 15 30 17
f 17 33 18
f 18 33 20
f 18 20 19
f 21 23 22
f 21 25 23
f 19 20 34
f 19 34 21
f 21 36 25
f 21 22 37
f 37 22 26
f 14 31 16
f 16 31 30
f 17 30 32
f 17 32 33
f 13 30 31
f 8 34 32
f 8 36 34
f 32 35 33
f 20 33 35
f 20 35 34
f 21 34 36
f 32 34 35
f 8 40 36
f 40 29 25
f 36 40 25
f 37 39 38
f 8 37 38
f 8 38 40
f 39 26 27
f 39 27 29
f 37 26 39
f 39 29 40
f 38 39 40
f 24 22 23
f 24 26 22
f 24 23 25
f 24 25 28
f 27 26 29
f 24 28 26
f 28 29 26
f 28 25 29
f 42 44 41
f 45 42 41
f 41 44 43
f 43 45 41
f 42 48 44
f 46 42 45
f 46 48 42
f 44 48 43
f 47 45 43
f 43 48 47
f 47 46 45
f 48 46 47
f 50 52 49
f 53 50 49
f 49 52 51
f 51 53 49
f 50 56 52
f 54 50 53
f 54 56 50
f 52 56 51
f 55 53 51
f 51 56 55
f 55 54 53
f 56 54 55
f 58 60 57
f 61 58 57
f 57 60 59
f 59 61 57
f 58 64 60
f 62 58 61
f 62 64 58
f 60 64 59
f 63 61 59
f 59 64 63
f 63 62 61
f 64 62 63
f 241 91 90
f 242 241 90
f 243 242 90
f 243 90 89
f 244 243 89
f 244 89 88
f 245 244 88
f 245 88 87
f 246 245 87
f 246 87 86
f 247 246 86
f 247 86 85
f 91 241 240
f 92 91 240
f 92 240 239
f 93 92 239
f 93 239 238
f 94 93 238
f 94 238 237
f 95 94 237
f 95 237 236
f 96 95 236
f 96 236 235
f 97 96 235
f 97 235 234
f 98 97 234
f 248 247 85
f 248 85 84
f 249 248 84
f 249 84 83
f 250 249 83
f 250 83 82
f 251 250 82
f 251 82 81
f 252 251 81
f 252 81 80
f 253 252 80
f 253 80 79
f 254 253 79
f 254 79 78
f 255 254 78
f 255 78 77
f 256 255 77
f 256 77 76
f 257 256 76
f 257 76 75
f 258 257 75
f 258 75 74
f 259 258 74
f 259 74 73
f 260 259 73
f 260 73 72
f 261 260 72
f 261 72 71
f 262 261 71
f 262 71 70
f 263 262 70
f 263 70 69
f 264 263 69
f 264 69 68
f 165 264 68
f 165 68 67
f 166 165 67
f 166 67 66
f 167 166 66
f 167 66 65
f 168 167 65
f 168 65 164
f 169 168 164
f 169 164 163
f 170 169 163
f 170 163 162
f 171 170 162
f 171 162 161
f 172 171 161
f 172 161 160
f 173 172 160
f 173 160 159
f 174 173 159
f 174 159 158
f 175 174 158
f 175 158 157
f 176 175 157
f 176 157 156
f 177 176 156
f 177 156 155
f 178 177 155
f 178 155 154
f 179 178 154
f 179 154 153
f 180 179 153
f 180 153 152
f 181 180 152
f 181 152 151
f 182 181 151
f 182 151 150
f 98 234 233
f 99 98 233
f 99 233 232
f 100 99 232
f 100 232 231
f 101 100 231
f 101 231 230
f 102 101 230
f 102 230 229
f 103 102 229
f 103 229 228
f 104 103 228
f 104 228 227
f 105 104 227
f 105 227 226
f 106 105 226
f 106 226 225
f 107 106 225
f 107 225 224
f 108 107 224
f 108 224 223
f 109 108 223
f 109 223 222
f 110 109 222
f 110 222 221
f 111 110 221
f 111 221 220
f 112 111 220
f 112 220 219
f 113 112 219
f 113 219 218
f 114 113 218
f 114 218 217
f 115 114 217
f 115 217 216
f 116 115 216
f 116 216 215
f 117 116 215
f 117 215 214
f 118 117 214
f 118 214 213
f 119 118 213
f 119 213 212
f 120 119 212
f 120 212 211
f 121 120 211
f 121 211 210
f 122 121 210
f 122 210 209
f 123 122 209
f 123 209 208
f 124 123 208
f 124 208 207
f 125 124 207
f 125 207 206
f 126 125 206
f 126 206 205
f 127 126 205
f 127 205 204
f 128 127 204
f 128 204 203
f 129 128 203
f 129 203 202
f 130 129 202
f 130 202 201
f 131 130 201
f 131 201 200
f 132 131 200
f 132 200 199
f 133 132 199
f 133 199 198
f 134 133 198
f 134 198 197
f 135 134 197
f 135 197 196
f 136 135 196
f 136 196 195
f 137 136 195
f 137 195 194
f 138 137 194
f 138 194 193
f 139 138 193
f 139 193 192
f 140 139 192
f 141 140 192
f 141 192 191
f 141 191 190
f 142 141 190
f 142 190 189
f 143 142 189
f 143 189 188
f 144 143 188
f 144 188 187
f 145 144 187
f 145 187 186
f 146 145 186
f 146 186 185
f 147 146 185
f 147 185 184
f 148 147 184
f 148 184 183
f 149 148 183
f 149 183 182
f 149 182 150
f 290 291 441
f 290 441 442
f 290 442 443
f 289 290 443
f 289 443 444
f 288 289 444
f 288 444 445
f 287 288 445
f 287 445 446
f 286 287 446
f 286 446 447
f 285 286 447
f 440 441 291
f 440 291 292
f 439 440 292
f 439 292 293
f 438 439 293
f 438 293 294
f 437 438 294
f 437 294 295
f 436 437 295
f 436 295 296
f 435 436 296
f 435 296 297
f 434 435 297
f 434 297 298
f 285 447 448
f 284 285 448
f 284 448 449
f 283 284 449
f 283 449 450
f 282 283 450
f 282 450 451
f 281 282 451
f 281 451 452
f 280 281 452
f 280 452 453
f 279 280 453
f 279 453 454
f 278 279 454
f 278 454 455
f 277 278 455
f 277 455 456
f 276 277 456
f 276 456 457
f 275 276 457
f 275 457 458
f 274 275 458
f 274 458 459
f 273 274 459
f 273 459 460
f 272 273 460
f 272 460 461
f 271 272 461
f 271 461 462
f 270 271 462
f 270 462 463
f 269 270 463
f 269 463 464
f 268 269 464
f 268 464 365
f 267 268 365
f 267 365 366
f 266 267 366
f 266 366 367
f 265 266 367
f 265 367 368
f 364 265 368
f 364 368 369
f 363 364 369
f 363 369 370
f 362 363 370
f 362 370 371
f 361 362 371
f 361 371 372
f 360 361 372
f 360 372 373
f 359 360 373
f 359 373 374
f 358 359 374
f 358 374 375
f 357 358 375
f 357 375 376
f 356 357 376
f 356 376 377
f 355 356 377
f 355 377 378
f 354 355 378
f 354 378 379
f 353 354 379
f 353 379 380
f 352 353 380
f 352 380 381
f 351 352 381
f 351 381 382
f 350 351 382
f 433 434 298
f 433 298 299
f 432 433 299
f 432 299 300
f 431 432 300
f 431 300 301
f 430 431 301
f 430 301 302
f 429 430 302
f 429 302 303
f 428 429 303
f 428 303 304
f 427 428 304
f 427 304 305
f 426 427 305
f 426 305 306
f 425 426 306
f 425 306 307
f 424 425 307
f 424 307 308
f 423 424 308
f 423 308 309
f 422 423 309
f 422 309 310
f 421 422 310
f 421 310 311
f 420 421 311
f 420 311 312
f 419 420 312
f 419 312 313
f 418 419 313
f 418 313 314
f 417 418 314
f 417 314 315
f 416 417 315
f 416 315 316
f 415 416 316
f 415 316 317
f 414 415 317
f 414 317 318
f 413 414 318
f 413 318 319
f 412 413 319
f 412 319 320
f 411 412 320
f 411 320 321
f 410 411 321
f 410 321 322
f 409 410 322
f 409 322 323
f 408 409 323
f 408 323 324
f 407 408 324
f 407 324 325
f 406 407 325
f 406 325 326
f 405 406 326
f 405 326 327
f 404 405 327
f 404 327 328
f 403 404 328
f 403 328 329
f 402 403 329
f 402 329 330
f 401 402 330
f 401 330 331
f 400 401 331
f 400 331 332
f 399 400 332
f 399 332 333
f 398 399 333
f 398 333 334
f 397 398 334
f 397 334 335
f 396 397 335
f 396 335 336
f 395 396 336
f 395 336 337
f 394 395 337
f 394 337 338
f 393 394 338
f 393 338 339
f 392 393 339
f 392 339 340
f 392 340 341
f 391 392 341
f 390 391 341
f 390 341 342
f 389 390 342
f 389 342 343
f 388 389 343
f 388 343 344
f 387 388 344
f 387 344 345
f 386 387 345
f 386 345 346
f 385 386 346
f 385 346 347
f 384 385 347
f 384 347 348
f 383 384 348
f 383 348 349
f 382 383 349
f 350 382 349
f 266 265 66
f 66 265 65
f 267 266 67
f 67 266 66
f 268 267 68
f 68 267 67
f 269 268 69
f 69 268 68
f 270 269 70
f 70 269 69
f 271 270 71
f 71 270 70
f 272 271 72
f 72 271 71
f 273 272 73
f 73 272 72
f 274 273 74
f 74 273 73
f 275 274 75
f 75 274 74
f 276 275 76
f 76 275 75
f 277 276 77
f 77 276 76
f 278 277 78
f 78 277 77
f 279 278 79
f 79 278 78
f 280 279 80
f 80 279 79
f 281 280 81
f 81 280 80
f 282 281 82
f 82 281 81
f 283 282 83
f 83 282 82
f 284 283 84
f 84 283 83
f 285 284 85
f 85 284 84
f 286 285 86
f 86 285 85
f 287 286 87
f 87 286 86
f 288 287 88
f 88 287 87
f 289 288 89
f 89 288 88
f 290 289 90
f 90 289 89
f 291 290 91
f 91 290 90
f 292 291 92
f 92 291 91
f 293 292 93
f 93 292 92
f 294 293 94
f 94 293 93
f 295 294 95
f 95 294 94
f 296 295 96
f 96 295 95
f 297 296 97
f 97 296 96
f 298 297 98
f 98 297 97
f 299 298 99
f 99 298 98
f 300 299 100
f 100 299 99
f 301 300 101
f 101 300 100
f 302 301 102
f 102 301 101
f 303 302 103
f 103 302 102
f 304 303 104
f 104 303 103
f 305 304 105
f 105 304 104
f 306 305 106
f 106 305 105
f 307 306 107
f 107 306 106
f 308 307 108
f 108 307 107
f 309 308 109
f 109 308 108
f 310 309 110
f 110 309 109
f 311 310 111
f 111 310 110
f 312 311 112
f 112 311 111
f 313 312 113
f 113 312 112
f 314 313 114
f 114 313 113
f 315 314 115
f 115 314 114
f 316 315 116
f 116 315 115
f 317 316 117
f 117 316 116
f 318 317 118
f 118 317 117
f 319 318 119
f 119 318 118
f 320 319 120
f 120 319 119
f 321 320 121
f 121 320 120
f 322 321 122
f 122 321 121
f 323 322 123
f 123 322 122
f 324 323 124
f 124 323 123
f 325 324 125
f 125 324 124
f 326 325 126
f 126 325 125
f 327 326 127
f 127 326 126
f 328 327 128
f 128 327 127
f 329 328 129
f 129 328 128
f 330 329 130
f 130 329 129
f 331 330 131
f 131 330 130
f 332 331 132
f 132 331 131
f 333 332 133
f 133 332 132
f 334 333 134
f 134 333 133
f 335 334 135
f 135 334 134
f 336 335 136
f 136 335 135
f 337 336 137
f 137 336 136
f 338 337 138
f 138 337 137
f 339 338 139
f 139 338 138
f 340 339 140
f 140 339 139
f 341 340 141
f 141 340 140
f 342 341 142
f 142 341 141
f 343 342 143
f 143 342 142
f 344 343 144
f 144 343 143
f 345 344 145
f 145 344 144
f 346 345 146
f 146 345 145
f 347 346 147
f 147 346 146
f 348 347 148
f 148 347 147
f 349 348 149
f 149 348 148
f 350 349 150
f 150 349 149
f 351 350 151
f 151 350 150
f 352 351 152
f 152 351 151
f 353 352 153
f 153 352 152
f 354 353 154
f 154 353 153
f 355 354 155
f 155 354 154
f 356 355 156
f 156 355 155
f 357 356 157
f 157 356 156
f 358 357 158
f 158 357 157
f 359 358 159
f 159 358 158
f 360 359 160
f 160 359 159
f 361 360 161
f 161 360 160
f 362 361 162
f 162 361 161
f 363 362 163
f 163 362 162
f 265 364 65
f 65 364 164
f 364 363 164
f 164 363 163
f 366 365 166
f 166 365 165
f 367 366 167
f 167 366 166
f 368 367 168
f 168 367 167
f 369 368 169
f 169 368 168
f 370 369 170
f 170 369 169
f 371 370 171
f 171 370 170
f 372 371 172
f 172 371 171
f 373 372 173
f 173 372 172
f 374 373 174
f 174 373 173
f 375 374 175
f 175 374 174
f 376 375 176
f 176 375 175
f 377 376 177
f 177 376 176
f 378 377 178
f 178 377 177
f 379 378 179
f 179 378 178
f 380 379 180
f 180 379 179
f 381 380 181
f 181 380 180
f 382 381 182
f 182 381 181
f 383 382 183
f 183 382 182
f 384 383 184
f 184 383 183
f 385 384 185
f 185 384 184
f 386 385 186
f 186 385 185
f 387 386 187
f 187 386 186
f 388 387 188
f 188 387 187
f 389 388 189
f 189 388 188
f 390 389 190
f 190 389 189
f 391 390 191
f 191 390 190
f 392 391 192
f 192 391 191
f 393 392 193
f 193 392 192
f 394 393 194
f 194 393 193
f 395 394 195
f 195 394 194
f 396 395 196
f 196 395 195
f 397 396 197
f 197 396 196
f 398 397 198
f 198 397 197
f 399 398 199
f 199 398 198
f 400 399 200
f 200 399 199
f 401 400 201
f 201 400 200
f 402 401 202
f 202 401 201
f 403 402 203
f 203 402 202
f 404 403 204
f 204 403 203
f 405 404 205
f 205 404 204
f 406 405 206
f 206 405 205
f 407 406 207
f 207 406 206
f 408 407 208
f 208 407 207
f 409 408 209
f 209 408 208
f 410 409 210
f 210 409 209
f 411 410 211
f 211 410 210
f 412 411 212
f 212 411 211
f 413 412 213
f 213 412 212
f 414 413 214
f 214 413 213
f 415 414 215
f 215 414 214
f 416 415 216
f 216 415 215
f 417 416 217
f 217 416 216
f 418 417 218
f 218 417 217
f 419 418 219
f 219 418 218
f 420 419 220
f 220 419 219
f 421 420 221
f 221 420 220
f 422 421 222
f 222 421 221
f 423 422 223
f 223 422 222
f 424 423 224
f 224 423 223
f 425 424 225
f 225 424 224
f 426 425 226
f 226 425 225
f 427 426 227
f 227 426 226
f 428 427 228
f 228 427 227
f 429 428 229
f 229 428 228
f 430 429 230
f 230 429 229
f 431 430 231
f 231 430 230
f 432 431 232
f 232 431 231
f 433 432 233
f 233 432 232
f 434 433 234
f 234 433 233
f 435 434 235
f 235 434 234
f 436 435 236
f 236 435 235
f 437 436 237
f 237 436 236
f 438 437 238
f 238 437 237
f 439 438 239
f 239 438 238
f 440 439 240
f 240 439 239
f 441 440 241
f 241 440 240
f 442 441 242
f 242 441 241
f 443 442 243
f 243 442 242
f 444 443 244
f 244 443 243
f 445 444 245
f 245 444 244
f 446 445 246
f 246 445 245
f 447 446 247
f 247 446 246
f 448 447 248
f 248 447 247
f 449 448 249
f 249 448 248
f 450 449 250
f 250 449 249
f 451 450 251
f 251 450 250
f 452 451 252
f 252 451 251
f 453 452 253
f 253 452 252
f 454 453 254
f 254 453 253
f 455 454 255
f 255 454 254
f 456 455 256
f 256 455 255
f 457 456 257
f 257 456 256
f 458 457 258
f 258 457 257
f 459 458 259
f 259 458 258
f 460 459 260
f 260 459 259
f 461 460 261
f 261 460 260
f 462 461 262
f 262 461 261
f 463 462 263
f 263 462 262
f 365 464 165
f 165 464 264
f 464 463 264
f 264 463 263
f 466 468 465
f 469 466 465
f 465 468 467
f 467 469 465
f 466 472 468
f 470 466 469
f 470 472 466
f 468 472 467
f 471 469 467
f 467 472 471
f 471 470 469
f 472 470 471
f 474 476 473
f 477 474 473
f 473 476 475
f 475 477 473
f 474 480 476
f 478 474 477
f 478 480 474
f 476 480 475
f 479 477 475
f 475 480 479
f 479 478 477
f 480 478 479
f 482 484 481
f 485 482 481
f 481 484 483
f 483 485 481
f 482 488 484
f 486 482 485
f 486 488 482
f 484 488 483
f 487 485 483
f 483 488 487
f 487 486 485
f 488 486 487
f 490 492 489
f 493 490 489
f 489 492 491
f 491 493 489
f 490 496 492
f 494 490 493
f 494 496 490
f 492 496 491
f 495 493 491
f 491 496 495
f 495 494 493
f 496 494 495
f 498 500 497
f 501 498 497
f 497 500 499
f 499 501 497
f 498 504 500
f 502 498 501
f 502 504 498
f 500 504 499
f 503 501 499
f 499 504 503
f 503 502 501
f 504 502 503
f 506 508 505
f 509 506 505
f 505 508 507
f 507 509 505
f 506 512 508
f 510 506 509
f 510 512 506
f 508 512 507
f 511 509 507
f 507 512 511
f 511 510 509
f 512 510 511
f 514 516 513
f 517 514 513
f 513 516 515
f 515 517 513
f 514 520 516
f 518 514 517
f 518 520 514
f 516 520 515
f 519 517 515
f 515 520 519
f 519 518 517
f 520 518 519
f 521 530 527
f 521 527 528
f 521 529 530
f 521 522 529
f 521 528 531
f 521 531 532
f 521 532 533
f 521 533 538
f 521 558 522
f 521 538 559
f 562 547 548
f 569 552 551
f 560 548 549
f 567 549 552
f 521 597 558
f 521 559 597
f 558 524 523
f 558 523 522
f 558 525 524
f 558 526 525
f 558 534 526
f 558 535 534
f 558 536 535
f 558 537 536
f 558 553 537
f 558 554 553
f 558 555 554
f 558 556 555
f 558 557 556
f 558 546 557
f 558 596 546
f 559 538 539
f 559 539 540
f 559 540 541
f 559 541 542
f 559 542 543
f 559 543 544
f 559 544 545
f 559 545 547
f 560 549 566
f 566 549 567
f 560 562 548
f 561 547 562
f 559 547 561
f 559 564 565
f 559 561 564
f 559 565 563
f 559 563 572
f 559 572 573
f 559 573 574
f 559 574 575
f 559 575 576
f 559 576 577
f 559 577 589
f 567 552 568
f 568 552 569
f 569 551 570
f 570 551 571
f 571 551 578
f 596 551 550
f 596 550 546
f 578 551 596
f 589 590 596
f 590 591 596
f 591 592 596
f 592 593 596
f 588 596 595
f 594 595 596
f 593 594 596
f 559 589 596
f 578 596 579
f 579 596 580
f 580 596 581
f 581 596 582
f 582 596 583
f 584 596 585
f 583 596 584
f 585 596 586
f 587 596 588
f 586 596 587
f 560 636 562
f 561 637 564
f 561 562 638
f 563 639 572
f 564 640 565
f 563 565 641
f 566 567 643
f 560 566 642
f 567 568 644
f 568 569 645
f 569 570 646
f 570 571 647
f 572 648 573
f 573 649 574
f 574 650 575
f 575 651 576
f 576 652 577
f 577 653 589
f 588 595 671
f 571 578 654
f 578 579 655
f 579 580 656
f 580 581 657
f 581 582 658
f 582 583 659
f 583 584 660
f 584 585 661
f 586 587 663
f 585 586 662
f 587 588 664
f 558 672 596
f 589 665 590
f 590 666 591
f 591 667 592
f 592 668 593
f 593 669 594
f 594 670 595
f 559 596 672
f 597 603 606
f 597 604 603
f 597 606 605
f 597 605 598
f 597 607 604
f 597 608 607
f 597 609 608
f 597 614 609
f 597 615 614
f 597 616 615
f 597 617 616
f 597 598 634
f 597 635 617
f 634 622 635
f 558 597 634
f 558 634 672
f 634 599 600
f 634 598 599
f 634 600 601
f 634 601 602
f 634 602 610
f 634 610 611
f 634 611 612
f 634 612 613
f 634 613 629
f 634 629 630
f 634 630 631
f 634 631 632
f 634 632 633
f 634 633 622
f 634 642 643
f 634 636 642
f 634 643 644
f 634 644 645
f 634 645 646
f 634 646 647
f 634 647 654
f 634 654 655
f 634 655 656
f 634 656 657
f 634 657 658
f 634 658 659
f 634 659 660
f 634 660 661
f 559 635 597
f 559 672 635
f 635 618 617
f 635 619 618
f 635 620 619
f 635 621 620
f 635 623 621
f 635 624 623
f 635 622 626
f 635 626 627
f 635 627 628
f 635 625 624
f 635 628 625
f 635 637 638
f 635 638 636
f 635 641 640
f 635 640 637
f 635 639 641
f 635 648 639
f 635 649 648
f 635 650 649
f 635 651 650
f 635 652 651
f 635 653 652
f 635 665 653
f 635 666 665
f 635 667 666
f 635 668 667
f 560 642 636
f 561 638 637
f 562 636 638
f 563 641 639
f 564 637 640
f 565 640 641
f 566 643 642
f 567 644 643
f 568 645 644
f 569 646 645
f 570 647 646
f 571 654 647
f 572 639 648
f 573 648 649
f 574 649 650
f 575 650 651
f 576 651 652
f 577 652 653
f 589 653 665
f 578 655 654
f 579 656 655
f 580 657 656
f 581 658 657
f 582 659 658
f 583 660 659
f 584 661 660
f 586 663 662
f 585 662 661
f 587 664 663
f 588 671 664
f 590 665 666
f 591 666 667
f 592 667 668
f 594 669 670
f 593 668 669
f 595 670 671
f 634 635 636
f 634 661 672
f 668 672 669
f 664 671 672
f 670 672 671
f 669 672 670
f 635 672 668
f 661 662 672
f 663 664 672
f 662 663 672
f 529 522 598
f 522 523 599
f 523 524 600
f 524 525 601
f 525 526 602
f 527 530 606
f 528 527 603
f 531 528 604
f 530 529 605
f 532 531 607
f 533 532 608
f 526 534 610
f 534 535 611
f 535 536 612
f 536 537 613
f 538 533 609
f 539 538 614
f 540 539 615
f 541 540 616
f 542 541 617
f 543 542 618
f 544 543 619
f 545 544 620
f 547 545 621
f 548 547 623
f 549 548 624
f 546 550 626
f 550 551 627
f 551 552 628
f 552 549 625
f 537 553 629
f 553 554 630
f 554 555 631
f 555 556 632
f 556 557 633
f 557 546 622
f 522 599 598
f 523 600 599
f 524 601 600
f 525 602 601
f 526 610 602
f 527 606 603
f 528 603 604
f 530 605 606
f 529 598 605
f 532 607 608
f 531 604 607
f 533 608 609
f 534 611 610
f 535 612 611
f 536 613 612
f 538 609 614
f 539 614 615
f 540 615 616
f 541 616 617
f 542 617 618
f 543 618 619
f 544 619 620
f 545 620 621
f 547 621 623
f 548 623 624
f 549 624 625
f 546 626 622
f 550 627 626
f 551 628 627
f 552 625 628
f 537 629 613
f 553 630 629
f 554 631 630
f 555 632 631
f 556 633 632
f 557 622 633
f 674 676 673
f 677 674 673
f 673 676 675
f 675 677 673
f 674 680 676
f 678 674 677
f 678 680 674
f 676 680 675
f 679 677 675
f 675 680 679
f 679 678 677
f 680 678 679
f 682 684 681
f 685 682 681
f 681 684 683
f 683 685 681
f 682 688 684
f 686 682 685
f 686 688 682
f 684 688 683
f 687 685 683
f 683 688 687
f 687 686 685
f 688 686 687
f 690 692 689
f 693 690 689
f 689 692 691
f 691 693 689
f 690 696 692
f 694 690 693
f 694 696 690
f 692 696 691
f 695 693 691
f 691 696 695
f 695 694 693
f 696 694 695
f 698 700 697
f 701 698 697
f 697 700 699
f 699 701 697
f 698 704 700
f 702 698 701
f 702 704 698
f 700 704 699
f 703 701 699
f 699 704 703
f 703 702 701
f 704 702 703
f 706 708 705
f 709 706 705
f 705 708 707
f 707 709 705
f 706 712 708
f 710 706 709
f 710 712 706
f 708 712 707
f 711 709 707
f 707 712 711
f 711 710 709
f 712 710 711
f 714 716 713
f 717 714 713
f 713 716 715
f 715 717 713
f 714 720 716
f 718 714 717
f 718 720 714
f 716 720 715
f 719 717 715
f 715 720 719
f 719 718 717
f 720 718 719
f 722 724 721
f 725 722 721
f 721 724 723
f 723 725 721
f 722 728 724
f 726 722 725
f 726 728 722
f 724 728 723
f 727 725 723
f 723 728 727
f 727 726 725
f 728 726 727
f 730 732 729
f 733 730 729
f 729 732 731
f 731 733 729
f 730 736 732
f 734 730 733
f 734 736 730
f 732 736 731
f 735 733 731
f 731 736 735
f 735 734 733
f 736 734 735
f 738 740 737
f 741 738 737
f 737 740 739
f 739 741 737
f 738 744 740
f 742 738 741
f 742 744 738
f 740 744 739
f 743 741 739
f 739 744 743
f 743 742 741
f 744 742 743
f 746 748 745
f 749 746 745
f 745 748 747
f 747 749 745
f 746 752 748
f 750 746 749
f 750 752 746
f 748 752 747
f 751 749 747
f 747 752 751
f 751 750 749
f 752 750 751
f 754 756 753
f 757 754 753
f 753 756 755
f 755 757 753
f 754 760 756
f 758 754 757
f 758 760 754
f 756 760 755
f 759 757 755
f 755 760 759
f 759 758 757
f 760 758 759
f 762 764 761
f 765 762 761
f 761 764 763
f 763 765 761
f 762 768 764
f 766 762 765
f 766 768 762
f 764 768 763
f 767 765 763
f 763 768 767
f 767 766 765
f 768 766 767
f 770 772 769
f 773 770 769
f 769 772 771
f 771 773 769
f 770 776 772
f 774 770 773
f 774 776 770
f 772 776 771
f 775 773 771
f 771 776 775
f 775 774 773
f 776 774 775

